<svg version="1.1" id="Layer_1" xmlns="http://www.w3.org/2000/svg" xmlns:xlink="http://www.w3.org/1999/xlink" x="0px" y="0px"
	 width="100%" viewBox="0 0 900 900" enable-background="new 0 0 900 900" xml:space="preserve">
<path fill="#FFFFFE" opacity="1.000000" stroke="none" 
	d="
M501.000000,901.000000 
	C335.500000,901.000000 170.499985,900.985168 5.500062,901.093872 
	C1.750667,901.096313 0.905528,900.249146 0.906808,896.499939 
	C1.008266,599.500000 1.008266,302.500000 0.906808,5.500032 
	C0.905527,1.750874 1.750873,0.905528 5.500032,0.906809 
	C302.500000,1.008261 599.500000,1.008261 896.499939,0.906809 
	C900.249146,0.905528 901.094482,1.750873 901.093201,5.500032 
	C900.991760,302.500000 900.991699,599.500000 901.093201,896.499939 
	C901.094482,900.249146 900.249451,901.097412 896.499939,901.094238 
	C764.833313,900.981445 633.166687,901.000000 501.000000,901.000000 
z"/>
<path fill="#DEB408" opacity="1.000000" stroke="none" 
	d="
M750.840332,451.976227 
	C750.166992,498.750610 740.553406,542.999695 719.497742,584.373291 
	C687.395264,647.453491 639.188965,693.944641 574.646423,723.325012 
	C541.712585,738.316833 507.182587,746.750671 471.086517,748.998047 
	C407.691681,752.945068 348.922638,738.281677 294.683899,705.319946 
	C287.760223,701.112244 287.792389,701.015930 291.116028,693.842346 
	C316.708496,638.604797 348.614624,587.266785 386.243805,539.433350 
	C407.683685,512.179382 430.700104,486.328522 455.196655,461.819458 
	C470.852417,446.155762 487.164917,431.160461 504.066101,416.828278 
	C505.273041,415.804779 506.396179,413.746368 508.125671,414.610535 
	C509.778870,415.436615 508.955536,417.624573 508.956421,419.199951 
	C508.994629,487.693939 508.994690,556.187927 508.997742,624.681946 
	C508.998352,638.847351 509.129639,653.014954 508.908691,667.176941 
	C508.840363,671.558228 509.859039,673.347412 514.698608,673.275574 
	C532.692932,673.008301 550.695435,673.048462 568.691040,673.276978 
	C573.265869,673.335083 574.279480,671.580811 574.256531,667.394104 
	C574.112183,641.063843 574.186707,614.732422 574.184387,588.401367 
	C574.177795,515.074463 574.193420,441.747498 574.089417,368.420685 
	C574.084229,364.728333 575.013184,362.352417 578.218445,360.187927 
	C616.532593,334.314789 656.652710,311.788116 699.335388,293.892395 
	C703.049133,292.335297 704.934448,292.930420 706.981262,296.320312 
	C723.722961,324.048492 735.791382,353.605988 743.146423,385.188263 
	C748.235840,407.041931 750.113037,429.182098 750.840332,451.976227 
z"/>
<path fill="#01275D" opacity="1.000000" stroke="none" 
	d="
M649.906982,228.727875 
	C653.978271,232.370560 657.795349,235.846954 661.813843,239.617538 
	C662.495850,240.341217 662.976501,240.770721 663.761414,241.584686 
	C665.684265,243.659515 667.302856,245.349869 669.111755,247.318863 
	C669.260742,248.045563 669.407776,248.412094 670.091919,248.671631 
	C671.130127,249.338943 671.848938,250.019073 672.742737,250.940613 
	C673.463684,251.490463 673.459900,252.124771 673.996948,252.716614 
	C674.511414,252.991089 674.737305,253.182602 675.020874,253.622910 
	C675.744202,254.883698 676.706543,255.653137 677.675476,256.816956 
	C680.505188,260.121765 683.150818,263.185120 685.957336,266.536743 
	C686.495422,267.489960 687.033813,268.027100 687.695007,268.829102 
	C689.217285,270.765350 690.570557,272.473358 692.032593,274.487976 
	C692.484802,275.483337 693.031311,276.017700 693.677490,276.833557 
	C694.891296,278.399994 695.941956,279.733276 697.141846,281.346619 
	C697.521423,282.173981 697.587830,282.740448 697.291443,283.712646 
	C697.092346,284.099152 697.000000,284.002441 697.048950,284.047729 
	C688.319336,287.592621 679.217041,290.224182 670.181641,294.104462 
	C669.189331,294.472778 668.555847,294.733948 667.594055,295.094543 
	C666.666382,295.452484 666.127747,295.844574 665.159973,296.056946 
	C663.970825,296.529938 663.104858,296.949249 661.898010,297.488892 
	C659.912476,297.421509 658.884399,298.840271 657.141724,299.299072 
	C656.435486,299.560547 656.032593,299.710510 655.305603,299.882324 
	C647.570190,303.237854 639.878357,305.898010 632.172119,309.428833 
	C631.101013,309.941925 630.341675,310.298309 629.263794,310.688843 
	C621.635986,314.385651 613.781311,316.857605 606.321167,321.023132 
	C605.272400,321.417267 604.562866,321.719696 603.583191,322.126953 
	C602.664246,322.444702 602.118408,322.873901 601.155029,323.208984 
	C600.281494,323.670319 599.731140,324.027252 598.870117,324.492249 
	C597.630066,324.301392 597.103760,325.067078 596.158875,325.568054 
	C595.620117,325.949585 595.340393,326.174377 594.798462,326.472168 
	C593.609802,326.321167 593.090637,327.061798 592.164368,327.602478 
	C590.278870,328.569397 588.647278,329.373047 586.677368,330.222687 
	C583.681702,331.519836 581.130493,332.982880 578.152588,334.350983 
	C577.150696,334.865540 576.460388,335.245667 575.478149,335.532623 
	C574.326843,334.712311 574.311218,333.756378 574.324402,332.718872 
	C574.732117,300.574493 574.411255,268.428680 574.501404,236.283554 
	C574.518921,230.047134 574.480164,230.011017 568.545959,230.004395 
	C550.556458,229.984344 532.567017,229.981735 514.577515,230.006332 
	C509.096039,230.013840 509.007996,230.099197 509.005707,235.613708 
	C508.987762,278.921722 508.974548,322.229797 509.038971,365.537720 
	C509.044556,369.301178 508.570862,372.524841 504.308716,374.484314 
	C503.229584,375.170837 502.555267,375.594055 501.602020,376.127563 
	C500.573303,376.437134 500.036346,377.003387 499.124756,377.484985 
	C497.606628,378.453583 496.344116,379.301636 494.784302,380.288208 
	C492.180481,381.187897 490.538818,383.033691 488.135010,384.252197 
	C486.527924,385.230988 485.225616,386.090942 483.621368,387.093231 
	C482.558105,387.439667 482.025299,388.015289 481.139099,388.560974 
	C478.199310,390.423279 475.509552,392.147430 472.505554,394.001343 
	C471.596619,394.470917 471.066895,394.911652 470.161133,395.397461 
	C466.194946,397.999603 462.533600,400.446045 458.567535,403.038513 
	C457.618622,403.463165 457.081451,403.918549 456.173767,404.434204 
	C455.869141,404.603210 455.595581,404.947845 455.397095,405.042755 
	C454.589050,405.475037 454.060028,405.931396 453.178101,406.485291 
	C450.874634,408.083038 448.867767,409.500031 446.555237,411.047455 
	C445.526337,411.468933 444.995667,412.028778 444.165710,412.661377 
	C443.718872,413.057312 443.460602,413.213562 442.929901,413.242737 
	C441.729736,413.271149 441.132629,413.974609 440.230286,414.797913 
	C439.571289,416.093384 438.627655,416.531372 437.386902,417.005920 
	C436.565277,417.471069 435.814270,417.438324 435.223328,418.231079 
	C434.604095,419.052124 434.078064,419.553406 433.275391,420.023315 
	C432.451843,419.409393 431.944733,419.471344 431.632263,420.362305 
	C431.792847,420.638489 431.644562,420.663391 431.613037,420.731659 
	C430.820251,420.361145 430.484680,420.774292 430.145081,421.733429 
	C429.607574,422.457458 429.205353,422.898163 428.500732,423.382935 
	C427.858398,423.235840 427.535156,423.249908 427.151367,423.764160 
	C424.890472,426.675079 421.757874,428.087738 418.784088,430.196228 
	C418.225647,430.110199 418.008331,429.944366 417.804626,429.761414 
	C417.601501,429.579041 417.649353,429.659576 418.116272,430.218262 
	C417.882141,430.813843 417.480042,431.194031 416.823547,431.707825 
	C416.098297,432.675476 415.157806,432.871552 414.182373,433.581055 
	C409.889648,436.803986 405.872803,439.840881 401.563904,443.035400 
	C400.111511,443.640869 399.431549,444.727814 398.138306,445.494934 
	C393.831390,448.741943 389.788300,451.843842 385.406189,454.990845 
	C384.566803,455.386292 383.802887,455.165039 383.399963,456.106750 
	C383.370331,456.422546 383.191132,456.232880 383.303284,456.299530 
	C382.427094,456.351501 381.990936,457.156219 381.249237,458.008301 
	C380.570038,458.844238 380.038422,459.398376 379.206726,459.963013 
	C375.501770,461.460815 372.992950,464.131989 370.214203,466.463837 
	C368.504761,467.898285 366.703308,469.874329 364.106445,467.017273 
	C363.379059,463.974182 363.603058,461.303345 363.600220,458.648468 
	C363.548584,410.069000 363.663269,361.489471 363.481506,312.492065 
	C363.287659,311.557648 363.053192,311.088989 362.417969,310.448456 
	C361.714874,309.953613 361.309784,309.679718 360.708191,309.097900 
	C339.630859,308.801422 318.754425,308.806366 297.406250,308.781891 
	C295.788574,309.514191 295.879120,310.619904 295.883057,311.838287 
	C296.114044,383.085876 295.942902,454.333740 295.983521,525.581482 
	C295.984833,527.901062 296.255890,530.245300 295.452179,532.996216 
	C294.370148,534.539429 293.465485,535.623779 292.295807,536.861694 
	C289.786133,539.135559 287.615692,541.330444 285.243164,543.790649 
	C284.524750,544.604431 284.030243,545.174805 283.285065,545.881348 
	C282.477966,546.535522 281.928192,547.060364 281.210449,547.820740 
	C280.876099,548.233643 280.738647,548.440430 280.408203,548.825684 
	C279.691345,549.538330 279.167450,550.072510 278.327148,550.807739 
	C277.472748,551.541016 276.922668,552.061340 276.215973,552.825867 
	C276.027008,553.037720 275.998779,553.000610 276.018127,553.013306 
	C275.441864,553.538025 274.908264,554.109924 274.269104,554.973145 
	C272.142822,557.316406 270.156403,559.401428 267.904114,561.697510 
	C265.936584,564.500977 263.346436,566.281921 261.303406,568.988037 
	C259.261566,571.390625 257.360046,573.496033 255.178650,575.776978 
	C254.452759,576.558472 253.899933,577.069641 253.232178,577.854248 
	C253.057098,578.074219 252.999573,578.007446 253.036804,578.030884 
	C252.446915,578.529175 251.918701,579.104004 251.263611,579.952820 
	C250.219421,581.349731 249.322144,582.492859 248.152451,583.789917 
	C247.145493,584.925659 246.201950,585.719788 245.271484,586.929810 
	C244.180710,588.310242 243.250259,589.430603 242.076370,590.750183 
	C241.401306,591.490356 240.959244,592.022583 240.278107,592.805664 
	C240.059189,593.073547 240.000153,593.004395 240.036896,593.031006 
	C239.436295,593.535645 238.909195,594.122803 238.286682,595.007324 
	C237.618515,596.082642 237.073837,596.888367 236.283936,597.855957 
	C235.461136,598.540344 234.914581,599.093201 234.256500,599.935425 
	C233.492447,600.987854 232.882874,601.792725 232.017914,602.764221 
	C231.105392,603.952026 230.185425,604.749390 229.262390,605.935425 
	C228.801712,606.654785 228.500443,607.118652 227.977875,607.756104 
	C227.105804,608.952087 226.187759,609.747009 225.259964,610.924683 
	C224.525925,612.001587 223.955292,612.826294 223.116928,613.790405 
	C222.119644,614.953369 221.143768,615.767334 220.325226,617.091187 
	C218.948120,619.123596 217.659378,620.855225 216.090424,622.751221 
	C215.431107,623.568237 214.883209,624.087769 214.285828,624.921143 
	C214.149673,625.166687 214.002182,625.009888 214.081924,625.082031 
	C210.012115,627.390869 208.638412,623.848999 206.410278,621.254150 
	C204.450287,618.580933 202.746017,616.207153 200.965363,613.509521 
	C200.047348,611.978638 199.405533,610.645752 198.349365,609.202759 
	C198.158035,608.952332 197.836304,608.782227 197.784851,608.607727 
	C197.611694,607.616882 197.003632,607.075439 196.443314,606.170654 
	C196.063522,605.662292 195.836563,605.403748 195.550339,604.889343 
	C194.810196,601.912170 192.457123,600.111267 191.354935,597.232910 
	C191.142334,596.960938 190.823364,596.805603 190.766754,596.637451 
	C187.373962,589.846130 183.815063,583.333679 180.650421,576.222900 
	C180.252396,575.625427 180.009216,575.353333 179.699799,574.811523 
	C179.033859,572.038391 177.552887,569.904419 176.505615,567.215027 
	C176.001602,566.131958 175.678070,565.346680 175.338043,564.237305 
	C173.375992,560.643372 173.275421,556.597778 170.817078,553.179016 
	C170.533356,552.450439 170.371750,552.035156 170.231812,551.279114 
	C170.103989,549.671265 169.571671,548.549133 168.842300,547.167603 
	C168.600632,546.445679 168.455002,546.021484 168.324448,545.257385 
	C168.087982,543.687012 167.580811,542.557983 166.884918,541.170471 
	C166.646866,540.446472 166.494171,540.021973 166.336731,539.257385 
	C166.049194,538.114990 166.023987,537.236572 165.435974,536.204712 
	C165.076019,535.321533 164.888947,534.707092 164.708710,533.768738 
	C163.366730,529.929016 163.028900,526.139709 161.634338,522.250732 
	C161.364227,521.476501 161.239685,521.048584 161.145752,520.285767 
	C161.085510,518.070251 160.255264,516.367065 159.782379,514.220703 
	C159.562805,513.450745 159.443008,513.014221 159.351395,512.236816 
	C158.901489,509.445831 158.576874,506.965240 157.851074,504.215881 
	C157.622162,503.134430 157.466721,502.386688 157.369949,501.259155 
	C156.434921,492.518524 155.167984,484.194305 154.112701,475.437927 
	C154.101501,474.574738 154.054626,474.120148 154.042755,473.323212 
	C153.287369,458.974518 153.364120,444.967529 154.081772,430.494049 
	C154.085892,429.190979 154.051743,428.353912 154.095642,426.942627 
	C154.174103,425.854401 154.174530,425.340302 154.308395,424.461609 
	C155.694824,416.830658 156.137543,409.451111 157.517090,401.801971 
	C157.568970,400.799347 157.605301,400.195099 157.758911,399.309509 
	C157.793793,396.815735 159.081146,394.879974 159.240173,392.385620 
	C159.363113,391.324463 159.400528,390.576752 159.575867,389.478607 
	C160.054565,387.298431 160.872223,385.591064 161.164124,383.389221 
	C161.240280,382.605011 161.251404,382.163574 161.392441,381.415283 
	C162.086334,379.305603 163.206528,377.661499 163.117004,375.344849 
	C163.179092,374.589752 163.200989,374.150574 163.367798,373.412750 
	C163.707901,372.599152 163.958008,372.107635 164.267914,371.342468 
	C164.427353,370.638641 164.480515,370.188629 164.685303,369.432465 
	C165.958267,365.668152 166.915451,362.158539 168.174881,358.386414 
	C168.310043,357.610046 168.370270,357.167419 168.599060,356.432068 
	C173.527359,343.607330 178.128204,331.007599 184.565948,318.809265 
	C184.671234,318.100098 184.752655,317.763397 185.022232,317.242432 
	C189.065674,311.323914 191.360016,304.686676 195.583008,298.797791 
	C196.342758,297.128204 197.085587,295.816071 198.079803,294.294189 
	C198.694626,293.412537 199.163208,292.811035 199.696106,291.919708 
	C199.791412,291.650604 199.893143,291.272430 200.057739,291.166351 
	C201.102844,289.885620 201.730209,288.552155 202.725311,287.078979 
	C204.518265,284.397125 206.140793,281.978790 207.992844,279.310181 
	C208.635818,278.505219 209.059143,277.958466 209.727310,277.164642 
	C212.219833,273.772522 214.499130,270.652618 217.036209,267.306274 
	C217.934189,266.112000 218.736755,265.279694 219.716232,264.144836 
	C220.826920,262.714661 221.732224,261.563232 222.898529,260.231567 
	C223.595154,259.423492 224.129501,258.875214 224.729523,258.018738 
	C229.131134,252.267426 234.080643,247.402359 239.302078,242.317413 
	C239.560684,241.912674 239.531967,241.713516 239.801727,241.559113 
	C243.564117,238.195145 247.028015,234.786438 250.777802,231.204803 
	C251.529739,230.510483 252.012711,230.005280 252.768951,229.278564 
	C254.466537,227.781250 255.908340,226.522156 257.625732,225.098694 
	C258.829315,224.240311 259.594788,223.356888 260.819092,222.478027 
	C262.606628,220.991821 264.108856,219.703430 265.902832,218.261810 
	C266.777863,217.246475 267.913696,217.155731 268.776611,216.184357 
	C269.721832,215.336563 270.465942,214.707657 271.471191,213.942490 
	C272.894775,213.351562 273.579926,212.271545 274.854126,211.469208 
	C275.114349,211.316025 275.381317,210.993805 275.575989,210.917130 
	C276.472443,210.523727 277.007477,209.976532 277.843262,209.361206 
	C278.082611,209.208282 278.294647,208.890091 278.469513,208.812805 
	C280.420502,207.864105 281.874939,206.511185 283.769775,205.236130 
	C284.003601,205.004730 284.220428,204.729721 284.388092,204.679169 
	C285.910797,204.516510 286.514740,203.232590 287.860870,202.539398 
	C288.131836,202.394943 288.434479,202.068909 288.638550,201.980377 
	C290.032135,201.024002 291.382965,200.407990 292.803833,199.319458 
	C293.052277,199.125473 293.354980,198.881470 293.545990,198.845398 
	C295.054535,198.093750 296.384552,197.398178 297.767456,196.201233 
	C297.984619,195.964066 298.238312,195.716156 298.413361,195.687637 
	C299.430908,195.602493 299.952789,194.967133 300.842072,194.392075 
	C301.773285,193.829666 302.456818,193.423035 303.416199,192.898911 
	C305.652618,191.758408 307.618744,190.745712 309.825195,189.479355 
	C310.381378,189.073517 310.653595,188.839874 311.185364,188.524689 
	C313.963470,187.561050 316.218140,186.153351 318.854187,184.755264 
	C319.493469,184.413696 319.819214,184.197601 320.420166,183.878799 
	C321.335327,183.553543 321.880829,183.130798 322.847382,182.818298 
	C323.723053,182.363815 324.274719,182.004791 325.140778,181.545654 
	C326.382874,181.684113 326.905853,180.938354 327.840485,180.409821 
	C328.380524,180.033142 328.664185,179.816803 329.214783,179.549255 
	C332.049927,179.099411 334.137756,177.516418 336.808807,176.459625 
	C337.103180,176.273712 337.478516,175.992172 337.712524,175.975525 
	C342.471313,174.285614 347.087585,172.854080 351.819061,170.700531 
	C352.560791,170.422684 352.966064,170.282104 353.693359,170.112946 
	C354.962738,169.970367 355.675781,169.325180 356.851501,168.880585 
	C357.590149,168.631073 357.998016,168.480011 358.734680,168.331589 
	C360.627441,168.099930 361.955261,167.135254 363.842651,166.812225 
	C364.577576,166.584076 364.986908,166.437698 365.722260,166.268494 
	C371.053619,164.279022 376.423737,163.603394 381.835938,161.787384 
	C382.883484,161.525833 383.592896,161.357208 384.670898,161.197372 
	C387.301605,161.205856 389.319946,160.076157 391.840027,159.700623 
	C392.575928,159.491516 392.995697,159.388382 393.740356,159.307236 
	C396.942871,159.248459 399.549866,157.936935 402.664856,157.606415 
	C403.444122,157.607208 403.909271,157.508560 404.731842,157.407211 
	C407.870972,157.183990 410.500122,156.075684 413.655701,155.980133 
	C415.595093,155.812897 417.184265,155.658234 419.168091,155.562943 
	C422.798401,154.560959 426.185181,155.183060 429.807922,154.599762 
	C430.557190,154.367630 430.974182,154.267838 431.713440,154.185364 
	C444.706512,153.790451 457.379517,154.041199 470.511292,154.135803 
	C472.331573,154.242264 473.692352,154.285919 475.454285,154.405197 
	C478.042938,155.507980 480.503204,154.538239 483.090454,155.495941 
	C484.366669,155.596725 485.263336,155.618896 486.484680,155.734192 
	C490.880951,155.299911 494.641022,157.184036 499.035461,157.477905 
	C500.085419,157.630173 500.722473,157.657913 501.667297,157.771515 
	C504.186798,157.790298 506.122772,159.110779 508.638489,159.184036 
	C509.685333,159.298752 510.413391,159.347595 511.489960,159.508331 
	C513.957397,160.273575 515.993774,161.282913 518.631348,161.185883 
	C519.387329,161.274597 519.814148,161.297791 520.539062,161.441742 
	C524.034668,162.907944 527.492004,163.370880 531.127319,164.514984 
	C531.833801,164.596008 532.170410,164.646942 532.744080,164.796021 
	C534.729004,164.954834 536.177856,165.905121 538.106445,166.539642 
	C538.810852,166.608932 539.156128,166.635223 539.738647,166.770752 
	C541.169556,167.110687 542.097290,168.082809 543.666504,168.152695 
	C544.388306,168.275620 544.812256,168.342850 545.531616,168.541870 
	C552.801147,171.922531 560.555298,173.158691 567.631226,177.113342 
	C568.782166,177.439865 569.603577,177.648560 570.653931,178.082764 
	C575.119629,180.443390 579.599121,182.075562 584.041992,184.590195 
	C584.743713,184.762939 585.101929,184.840515 585.680725,185.085220 
	C586.578735,185.652298 587.190674,186.150131 588.153809,186.583832 
	C588.799683,186.701965 589.151550,186.798889 589.694824,187.094879 
	C591.798706,188.397141 593.617004,189.669281 595.970520,190.661652 
	C596.986877,191.159454 597.703430,191.514603 598.667969,192.039764 
	C600.106628,193.082169 601.432800,193.736679 602.941895,194.694275 
	C604.970398,195.798737 606.723083,196.749664 608.695129,197.956543 
	C609.577637,198.628571 610.169373,199.144608 611.110901,199.629517 
	C619.708496,204.925705 627.849121,210.406052 635.704834,216.873138 
	C636.551025,217.566498 637.086975,218.101593 637.899780,218.747833 
	C638.951172,219.466873 639.770935,220.022629 640.786499,220.803848 
	C641.549255,221.542664 642.083618,222.091522 642.910400,222.741180 
	C643.300720,222.994415 643.452576,223.088287 643.751709,223.405823 
	C644.098450,223.590393 644.297913,223.551331 644.508057,223.817001 
	C645.190186,224.627167 645.861633,225.132584 646.739929,225.880920 
	C647.918945,226.858505 648.715210,227.788559 649.906982,228.727875 
z"/>
<path fill="#04285E" opacity="1.000000" stroke="none" 
	d="
M781.272217,220.881836 
	C804.391663,223.549500 819.747131,242.290375 819.676941,263.843170 
	C819.602112,286.825714 799.955933,305.856201 776.801636,305.569641 
	C753.333252,305.279175 735.608704,286.808228 734.852356,263.598206 
	C734.096375,240.401321 754.783997,218.480698 781.272217,220.881836 
z"/>
<path fill="#4A6286" opacity="1.000000" stroke="none" 
	d="
M504.259583,374.736145 
	C507.948853,371.772705 508.090393,367.593597 508.077515,363.014130 
	C507.957977,320.384155 508.075714,277.753479 507.910217,235.123840 
	C507.892120,230.462753 508.964325,228.820160 513.919128,228.895935 
	C532.565491,229.181076 551.220032,229.122589 569.868652,228.922791 
	C574.358093,228.874695 575.970520,230.105942 575.941895,234.838974 
	C575.752319,266.144440 575.852722,297.451630 575.813354,328.758209 
	C575.810913,330.731354 575.425781,332.704071 575.202515,335.058228 
	C572.459473,334.723633 573.809875,332.510986 573.805603,331.064484 
	C573.711853,299.586761 573.614502,268.107910 573.833984,236.631516 
	C573.868896,231.624481 572.651794,230.115677 567.482300,230.217926 
	C550.001343,230.563660 532.506409,230.527817 515.023560,230.232605 
	C510.220215,230.151520 509.235413,231.777481 509.250305,236.219345 
	C509.396362,279.855042 509.294037,323.491486 509.416748,367.127319 
	C509.427643,371.009521 508.414978,373.575897 504.259583,374.736145 
z"/>
<path fill="#081A4B" opacity="1.000000" stroke="none" 
	d="
M364.779816,467.567261 
	C368.276123,467.706879 369.996857,465.020172 372.226624,463.190369 
	C374.034882,461.706512 375.700073,460.163086 378.541748,459.998352 
	C373.805054,464.205414 368.703430,468.437378 363.310120,472.839691 
	C362.656433,473.352295 362.228638,473.489502 361.470917,473.181946 
	C361.148468,456.658447 361.049713,440.374878 361.040222,424.091217 
	C361.018829,387.360382 361.041626,350.629517 361.109955,313.431671 
	C360.978180,311.806915 361.448059,310.719818 361.719849,309.306854 
	C362.369385,309.016327 362.830841,309.010681 363.638489,309.003876 
	C364.931915,310.725403 364.458557,312.594696 364.461121,314.388245 
	C364.534546,365.302002 364.395996,416.215881 364.779816,467.567261 
z"/>
<path fill="#395076" opacity="1.000000" stroke="none" 
	d="
M295.581665,533.214600 
	C295.149719,531.632202 294.915802,529.809265 294.915344,527.986389 
	C294.897369,456.486847 294.889557,384.987305 294.968597,313.487823 
	C294.970490,311.784363 293.670380,309.417816 296.659180,308.547241 
	C295.514252,310.147095 296.187866,311.908691 296.187225,313.502808 
	C296.158508,384.844391 296.163330,456.185944 296.149017,527.527527 
	C296.148651,529.343079 295.979156,531.158630 295.581665,533.214600 
z"/>
<path fill="#395076" opacity="1.000000" stroke="none" 
	d="
M153.924957,430.373535 
	C155.117096,430.926941 154.921677,432.132782 154.914047,433.266449 
	C154.826233,446.299072 154.723099,459.331573 154.350891,472.672485 
	C152.038162,461.730286 152.608093,450.393890 153.011230,439.068542 
	C153.110489,436.280334 153.483017,433.501923 153.924957,430.373535 
z"/>
<path fill="#4A6286" opacity="1.000000" stroke="none" 
	d="
M470.614075,154.011688 
	C466.088196,155.710892 461.090881,154.677307 456.154358,154.778778 
	C448.336304,154.939514 440.510834,154.738205 432.362122,154.446381 
	C444.762115,152.643372 457.510071,153.272491 470.614075,154.011688 
z"/>
<path fill="#395076" opacity="1.000000" stroke="none" 
	d="
M184.313904,318.644592 
	C183.949921,324.453491 180.136108,329.177826 177.999802,334.586548 
	C175.184967,341.713135 172.257324,348.795135 169.072922,356.017822 
	C172.335312,343.086823 178.041336,330.910095 184.313904,318.644592 
z"/>
<path fill="#395076" opacity="1.000000" stroke="none" 
	d="
M154.000671,475.344879 
	C156.503418,483.271637 157.574921,491.704254 157.657684,500.564392 
	C154.956635,492.654541 154.327576,484.168457 154.000671,475.344879 
z"/>
<path fill="#4A6286" opacity="1.000000" stroke="none" 
	d="
M670.171082,294.313599 
	C671.643311,291.018372 675.318604,291.506531 678.075684,290.326385 
	C683.973755,287.801697 690.211182,286.070129 696.703735,284.053345 
	C690.262329,288.153503 682.334167,289.454193 675.193970,292.754120 
	C673.699097,293.445007 672.080811,293.868713 670.171082,294.313599 
z"/>
<path fill="#395076" opacity="1.000000" stroke="none" 
	d="
M157.280334,401.678711 
	C158.480347,409.063965 156.289474,416.388367 154.787445,423.960236 
	C154.246628,416.592438 155.777863,409.289520 157.280334,401.678711 
z"/>
<path fill="#4A6286" opacity="1.000000" stroke="none" 
	d="
M606.239319,321.243347 
	C609.502869,317.323395 614.618042,316.520233 618.957153,314.270020 
	C622.001892,312.691040 625.304443,311.609009 628.718506,310.514038 
	C623.429199,314.609009 616.772278,316.127350 610.949402,319.385315 
	C609.536865,320.175598 607.984741,320.716370 606.239319,321.243347 
z"/>
<path fill="#4A6286" opacity="1.000000" stroke="none" 
	d="
M632.229004,309.595306 
	C635.429260,305.823914 640.645081,305.414032 644.981506,303.202881 
	C648.021973,301.652588 651.356934,300.680023 654.770996,299.676819 
	C647.951599,304.133240 640.078552,306.416840 632.229004,309.595306 
z"/>
<path fill="#395076" opacity="1.000000" stroke="none" 
	d="
M180.487030,576.257874 
	C185.022842,581.932068 187.782425,588.893555 190.790573,596.075928 
	C186.471222,590.279236 183.307220,583.535095 180.487030,576.257874 
z"/>
<path fill="#4A6286" opacity="1.000000" stroke="none" 
	d="
M567.767334,176.941071 
	C560.485718,175.107651 553.176514,172.529922 545.974365,168.964539 
	C553.419312,170.396667 560.571228,173.320419 567.767334,176.941071 
z"/>
<path fill="#395076" opacity="1.000000" stroke="none" 
	d="
M195.319794,298.633667 
	C193.508423,305.216034 189.737854,311.110840 185.546539,317.009735 
	C187.755356,310.586792 191.344452,304.678314 195.319794,298.633667 
z"/>
<path fill="#4A6286" opacity="1.000000" stroke="none" 
	d="
M381.798981,161.579102 
	C377.557617,165.246216 371.604919,164.622604 366.283264,166.475296 
	C370.740204,163.258499 376.331573,163.163330 381.798981,161.579102 
z"/>
<path fill="#4A6286" opacity="1.000000" stroke="none" 
	d="
M584.199280,184.400101 
	C579.469360,183.855194 575.309753,181.250427 570.944702,178.645325 
	C575.611023,179.449280 579.851868,181.692017 584.199280,184.400101 
z"/>
<path fill="#395076" opacity="1.000000" stroke="none" 
	d="
M170.666641,553.219238 
	C175.174820,555.054688 173.656265,560.109741 175.534485,563.676636 
	C172.576233,561.002686 172.382660,556.936523 170.666641,553.219238 
z"/>
<path fill="#4A6286" opacity="1.000000" stroke="none" 
	d="
M351.798950,170.462921 
	C348.284729,173.871170 343.378387,174.680496 338.341003,176.042145 
	C342.118530,173.305756 346.934937,172.206680 351.798950,170.462921 
z"/>
<path fill="#4A6286" opacity="1.000000" stroke="none" 
	d="
M499.200012,157.337036 
	C495.278961,158.837708 491.496918,156.840637 487.182220,156.002274 
	C490.971252,155.125488 494.963806,156.075867 499.200012,157.337036 
z"/>
<path fill="#395076" opacity="1.000000" stroke="none" 
	d="
M161.390289,522.291199 
	C165.498230,524.544495 163.235321,529.218018 164.835876,533.022400 
	C162.470612,530.206787 162.511505,526.241943 161.390289,522.291199 
z"/>
<path fill="#395076" opacity="1.000000" stroke="none" 
	d="
M167.978241,358.282227 
	C169.020645,362.093750 166.830475,365.344360 165.109680,368.959717 
	C164.726395,365.299652 166.674149,362.029480 167.978241,358.282227 
z"/>
<path fill="#395076" opacity="1.000000" stroke="none" 
	d="
M206.169037,621.301147 
	C209.172546,621.255188 209.433182,626.381592 213.765076,625.115356 
	C212.747757,628.817444 211.001709,628.894592 208.908875,625.660889 
	C208.030457,624.303711 207.093719,622.984192 206.169037,621.301147 
z"/>
<path fill="#4A6286" opacity="1.000000" stroke="none" 
	d="
M531.291992,164.247284 
	C527.827087,164.660690 524.273987,164.256714 520.964783,161.882690 
	C524.380859,161.812622 527.747070,162.824203 531.291992,164.247284 
z"/>
<path fill="#395076" opacity="1.000000" stroke="none" 
	d="
M157.678558,504.268738 
	C160.259232,505.877930 160.126892,508.591431 159.603912,511.623291 
	C157.829041,509.718750 157.791565,507.165375 157.678558,504.268738 
z"/>
<path fill="#395076" opacity="1.000000" stroke="none" 
	d="
M285.338684,543.940186 
	C285.952972,540.642944 288.649414,538.844543 291.684875,537.027588 
	C290.456024,539.804871 287.817169,541.601807 285.338684,543.940186 
z"/>
<path fill="#395076" opacity="1.000000" stroke="none" 
	d="
M261.479004,569.165222 
	C261.466492,565.546143 264.740692,564.187073 267.315399,561.958740 
	C266.741364,565.147888 263.487091,566.457031 261.479004,569.165222 
z"/>
<path fill="#4A6286" opacity="1.000000" stroke="none" 
	d="
M429.716370,154.297913 
	C427.105804,156.348770 423.740967,156.048370 419.984131,155.781998 
	C422.587799,153.703018 425.995178,154.274078 429.716370,154.297913 
z"/>
<path fill="#4A6286" opacity="1.000000" stroke="none" 
	d="
M413.690094,155.828735 
	C411.450653,157.605072 408.640533,158.110062 405.373291,157.625198 
	C407.606476,155.651840 410.538879,155.905365 413.690094,155.828735 
z"/>
<path fill="#4A6286" opacity="1.000000" stroke="none" 
	d="
M402.603394,157.560669 
	C400.266174,158.734512 397.736847,160.502167 394.328308,159.558640 
	C396.569305,157.766815 399.391266,157.559982 402.603394,157.560669 
z"/>
<path fill="#4A6286" opacity="1.000000" stroke="none" 
	d="
M578.193115,334.483978 
	C579.812622,331.933167 582.852295,331.265564 585.970825,330.177917 
	C584.154297,332.437469 581.336304,333.435120 578.193115,334.483978 
z"/>
<path fill="#395076" opacity="1.000000" stroke="none" 
	d="
M191.173279,597.310669 
	C193.890640,598.467712 194.740524,601.236938 195.622833,604.265198 
	C193.497360,602.656311 192.362320,600.151306 191.173279,597.310669 
z"/>
<path fill="#395076" opacity="1.000000" stroke="none" 
	d="
M159.091766,392.317383 
	C160.917175,394.504852 159.136627,396.489380 158.165894,398.824097 
	C157.210861,396.722260 158.004532,394.637878 159.091766,392.317383 
z"/>
<path fill="#4A6286" opacity="1.000000" stroke="none" 
	d="
M391.787781,159.468964 
	C390.336456,161.524597 388.080750,162.063583 385.286255,161.438507 
	C386.952911,159.854965 389.164795,159.525955 391.787781,159.468964 
z"/>
<path fill="#4A6286" opacity="1.000000" stroke="none" 
	d="
M508.715637,159.010101 
	C506.520752,160.962936 504.545807,159.013351 502.187256,158.140442 
	C504.320770,156.884567 506.324524,158.346176 508.715637,159.010101 
z"/>
<path fill="#4A6286" opacity="1.000000" stroke="none" 
	d="
M518.673584,161.026978 
	C516.408508,162.698242 514.232849,161.717026 511.989807,159.907166 
	C514.196167,159.045105 516.202759,160.414993 518.673584,161.026978 
z"/>
<path fill="#4A6286" opacity="1.000000" stroke="none" 
	d="
M318.831299,184.550507 
	C317.566254,187.251328 314.653748,187.621109 311.802399,188.576569 
	C313.336517,186.305603 316.079651,185.679428 318.831299,184.550507 
z"/>
<path fill="#395076" opacity="1.000000" stroke="none" 
	d="
M160.991333,383.305847 
	C162.862488,385.301910 161.490387,387.065582 159.996155,388.991821 
	C159.180817,387.109497 160.101654,385.362518 160.991333,383.305847 
z"/>
<path fill="#4A6286" opacity="1.000000" stroke="none" 
	d="
M488.156677,384.433777 
	C489.132080,382.009338 491.438568,381.085205 494.134003,380.319641 
	C492.485748,381.783356 490.484436,383.139923 488.156677,384.433777 
z"/>
<path fill="#4A6286" opacity="1.000000" stroke="none" 
	d="
M336.743774,176.266617 
	C335.420410,178.628510 332.939087,179.424759 329.859680,179.644699 
	C331.782623,178.418549 334.083527,177.339035 336.743774,176.266617 
z"/>
<path fill="#395076" opacity="1.000000" stroke="none" 
	d="
M159.560211,514.235352 
	C161.661835,515.297852 162.283478,517.187500 161.422165,519.732239 
	C159.865067,518.398682 159.687210,516.479492 159.560211,514.235352 
z"/>
<path fill="#395076" opacity="1.000000" stroke="none" 
	d="
M176.342300,567.273804 
	C178.738449,568.560303 179.488144,571.063904 179.749130,574.151184 
	C177.828262,572.576294 177.375870,569.969788 176.342300,567.273804 
z"/>
<path fill="#4A6286" opacity="1.000000" stroke="none" 
	d="
M483.217621,155.291290 
	C481.000031,156.200577 478.547882,156.507141 476.021606,154.824249 
	C478.271240,154.038422 480.640350,154.224899 483.217621,155.291290 
z"/>
<path fill="#4A6286" opacity="1.000000" stroke="none" 
	d="
M596.138672,190.496735 
	C593.534363,191.286667 591.876343,189.387085 589.943726,187.630646 
	C592.238281,187.599899 593.944824,189.270508 596.138672,190.496735 
z"/>
<path fill="#395076" opacity="1.000000" stroke="none" 
	d="
M162.947937,375.310852 
	C164.830429,377.336426 163.562927,379.132660 161.829285,381.004822 
	C161.050003,379.076294 162.383316,377.442383 162.947937,375.310852 
z"/>
<path fill="#4A6286" opacity="1.000000" stroke="none" 
	d="
M309.761719,189.304901 
	C308.892212,191.579315 306.588043,192.114639 304.056274,192.824814 
	C305.242218,191.034225 307.301331,190.124161 309.761719,189.304901 
z"/>
<path fill="#4A6286" opacity="1.000000" stroke="none" 
	d="
M538.280640,166.329468 
	C536.518982,167.461548 535.002991,166.375916 533.213013,165.188110 
	C534.954346,164.126953 536.489380,165.255630 538.280640,166.329468 
z"/>
<path fill="#4A6286" opacity="1.000000" stroke="none" 
	d="
M363.833130,166.613434 
	C362.939362,168.165939 361.492126,169.099167 359.278198,168.548462 
	C360.283447,167.098663 361.823730,166.635986 363.833130,166.613434 
z"/>
<path fill="#4A6286" opacity="1.000000" stroke="none" 
	d="
M283.665405,205.041962 
	C283.349945,207.361847 281.307526,208.041718 279.005493,208.789810 
	C279.704315,206.875061 281.672974,206.178497 283.665405,205.041962 
z"/>
<path fill="#395076" opacity="1.000000" stroke="none" 
	d="
M166.693390,541.182495 
	C168.327423,541.621277 169.265259,542.688843 168.552826,544.723267 
	C167.267975,544.025879 166.803604,542.823486 166.693390,541.182495 
z"/>
<path fill="#395076" opacity="1.000000" stroke="none" 
	d="
M168.650284,547.179810 
	C170.380264,547.576599 171.292557,548.665466 170.475128,550.745728 
	C169.687103,549.788757 169.120712,548.639221 168.650284,547.179810 
z"/>
<path fill="#4A6286" opacity="1.000000" stroke="none" 
	d="
M543.810303,167.958069 
	C542.393860,169.617020 541.317749,168.524750 540.104980,167.175461 
	C541.417603,166.200302 542.492554,167.151199 543.810303,167.958069 
z"/>
<path fill="#395076" opacity="1.000000" stroke="none" 
	d="
M198.204895,609.278076 
	C200.202789,609.245972 200.418503,611.005371 200.937897,612.833984 
	C199.299576,612.514771 199.062408,610.848145 198.204895,609.278076 
z"/>
<path fill="#4A6286" opacity="1.000000" stroke="none" 
	d="
M603.128906,194.528381 
	C601.497498,194.885910 600.090332,194.258240 598.975830,192.545258 
	C600.290527,192.876160 601.665283,193.542542 603.128906,194.528381 
z"/>
<path fill="#395076" opacity="1.000000" stroke="none" 
	d="
M202.602844,286.954742 
	C203.107925,288.620697 202.155624,289.860382 200.555679,291.003845 
	C200.338623,289.433136 201.361755,288.283295 202.602844,286.954742 
z"/>
<path fill="#4A6286" opacity="1.000000" stroke="none" 
	d="
M657.153870,299.501434 
	C657.640625,297.644867 659.195251,297.325562 661.229187,297.453125 
	C660.194580,298.270264 658.831909,298.931244 657.153870,299.501434 
z"/>
<path fill="#4A6286" opacity="1.000000" stroke="none" 
	d="
M297.648132,195.975677 
	C297.792023,198.125031 295.934479,198.297531 294.095459,198.864807 
	C294.389160,197.185394 296.122894,196.931488 297.648132,195.975677 
z"/>
<path fill="#4A6286" opacity="1.000000" stroke="none" 
	d="
M292.715881,199.116516 
	C292.723206,201.115051 290.990448,201.346375 289.190857,201.911026 
	C289.396912,200.170288 291.247253,200.095016 292.715881,199.116516 
z"/>
<path fill="#4A6286" opacity="1.000000" stroke="none" 
	d="
M287.817200,202.377090 
	C287.694824,203.847092 286.758972,204.702881 284.886169,204.731140 
	C285.254181,203.503571 286.288818,202.815109 287.817200,202.377090 
z"/>
<path fill="#395076" opacity="1.000000" stroke="none" 
	d="
M225.399841,611.079895 
	C224.951294,609.610901 225.781693,608.660034 227.424255,607.970825 
	C227.732971,609.392029 226.381973,609.961487 225.399841,611.079895 
z"/>
<path fill="#395076" opacity="1.000000" stroke="none" 
	d="
M220.532928,617.260193 
	C219.829514,615.676270 220.748474,614.707825 222.496429,613.968750 
	C222.718323,615.338623 221.638748,616.148315 220.532928,617.260193 
z"/>
<path fill="#4A6286" opacity="1.000000" stroke="none" 
	d="
M650.094360,228.577637 
	C648.548950,229.040955 647.670105,228.086151 646.979858,226.461060 
	C648.399109,226.223007 649.080078,227.434204 650.094360,228.577637 
z"/>
<path fill="#395076" opacity="1.000000" stroke="none" 
	d="
M361.674683,308.975769 
	C361.829559,310.176147 361.751221,311.330292 361.423157,312.724548 
	C360.996521,311.756317 360.819580,310.547974 360.574951,309.068054 
	C360.831726,308.749573 361.143127,308.793945 361.674683,308.975769 
z"/>
<path fill="#395076" opacity="1.000000" stroke="none" 
	d="
M229.400238,606.080322 
	C228.848587,604.557129 229.801147,603.676575 231.426544,602.968567 
	C231.703659,604.371582 230.451279,605.001221 229.400238,606.080322 
z"/>
<path fill="#4A6286" opacity="1.000000" stroke="none" 
	d="
M398.188904,445.650452 
	C398.202271,444.166565 399.143433,443.350159 400.938354,443.142090 
	C400.730042,444.443115 399.567932,444.997284 398.188904,445.650452 
z"/>
<path fill="#4A6286" opacity="1.000000" stroke="none" 
	d="
M356.889709,168.673004 
	C356.640411,170.041290 355.893890,170.963242 354.167114,170.302216 
	C354.570587,169.058945 355.517395,168.698517 356.889709,168.673004 
z"/>
<path fill="#4A6286" opacity="1.000000" stroke="none" 
	d="
M677.850830,256.735687 
	C676.319824,256.871887 675.490967,255.911758 675.098145,254.161957 
	C676.489441,254.200531 677.152222,255.320953 677.850830,256.735687 
z"/>
<path fill="#4A6286" opacity="1.000000" stroke="none" 
	d="
M260.789246,222.295013 
	C260.832153,223.722839 259.885376,224.526520 258.229370,224.951752 
	C258.285065,223.594925 259.417297,222.989319 260.789246,222.295013 
z"/>
<path fill="#4A6286" opacity="1.000000" stroke="none" 
	d="
M274.798096,211.303345 
	C274.803802,212.800507 273.843140,213.601074 272.066742,213.850800 
	C272.305817,212.592789 273.329407,211.871338 274.798096,211.303345 
z"/>
<path fill="#395076" opacity="1.000000" stroke="none" 
	d="
M245.417068,587.091553 
	C244.916122,585.546570 245.841019,584.636536 247.537537,583.975586 
	C247.772202,585.392578 246.565353,586.063965 245.417068,587.091553 
z"/>
<path fill="#395076" opacity="1.000000" stroke="none" 
	d="
M219.621307,263.961945 
	C220.099426,265.434784 219.248108,266.358948 217.624451,267.043091 
	C217.297745,265.621796 218.626541,265.052551 219.621307,263.961945 
z"/>
<path fill="#395076" opacity="1.000000" stroke="none" 
	d="
M165.192841,536.271790 
	C166.850540,536.163330 167.157211,537.138733 166.551636,538.717896 
	C165.410553,538.418762 165.287415,537.502319 165.192841,536.271790 
z"/>
<path fill="#4A6286" opacity="1.000000" stroke="none" 
	d="
M414.206055,433.753021 
	C413.916046,432.412781 414.971313,432.170502 416.259277,431.843750 
	C416.425812,433.066040 415.332489,433.257629 414.206055,433.753021 
z"/>
<path fill="#4A6286" opacity="1.000000" stroke="none" 
	d="
M268.664337,215.998352 
	C269.040985,217.429276 268.033020,217.851303 266.534851,218.118042 
	C266.365479,216.847382 267.563660,216.652573 268.664337,215.998352 
z"/>
<path fill="#4A6286" opacity="1.000000" stroke="none" 
	d="
M327.794434,180.235352 
	C327.929413,181.412094 327.154694,181.759399 325.778992,181.590088 
	C326.134064,181.037445 326.813019,180.629318 327.794434,180.235352 
z"/>
<path fill="#081A4B" opacity="1.000000" stroke="none" 
	d="
M381.411041,458.227051 
	C381.117523,457.218506 381.288483,456.264771 383.041565,456.297668 
	C382.850433,456.965454 382.285431,457.564728 381.411041,458.227051 
z"/>
<path fill="#4A6286" opacity="1.000000" stroke="none" 
	d="
M588.265503,186.360535 
	C587.449951,187.081238 586.663208,186.798492 585.969727,185.593445 
	C586.628601,185.540237 587.355835,185.828140 588.265503,186.360535 
z"/>
<path fill="#4A6286" opacity="1.000000" stroke="none" 
	d="
M322.878235,182.634521 
	C322.804413,183.541870 322.101807,183.832428 320.985168,183.851715 
	C320.946991,182.784882 321.775696,182.680389 322.878235,182.634521 
z"/>
<path fill="#395076" opacity="1.000000" stroke="none" 
	d="
M361.107178,473.195129 
	C361.610260,472.934967 362.013794,472.927887 362.717896,472.965454 
	C362.635284,474.473785 362.024109,474.891022 361.107178,473.195129 
z"/>
<path fill="#4A6286" opacity="1.000000" stroke="none" 
	d="
M456.176025,404.626038 
	C456.042755,403.613495 456.772736,403.276520 457.949768,403.140625 
	C458.080505,404.172211 457.238861,404.358459 456.176025,404.626038 
z"/>
<path fill="#395076" opacity="1.000000" stroke="none" 
	d="
M281.308105,547.959290 
	C280.984314,547.034119 281.404968,546.350037 282.704651,546.030151 
	C282.557129,546.642212 282.079895,547.266968 281.308105,547.959290 
z"/>
<path fill="#395076" opacity="1.000000" stroke="none" 
	d="
M276.319458,552.960510 
	C275.967743,552.039734 276.381866,551.355896 277.681396,551.024902 
	C277.544434,551.633545 277.078156,552.258423 276.319458,552.960510 
z"/>
<path fill="#395076" opacity="1.000000" stroke="none" 
	d="
M274.420807,555.130127 
	C274.001282,554.208618 274.334900,553.448181 275.695679,553.051758 
	C275.595734,553.693542 275.154022,554.361145 274.420807,555.130127 
z"/>
<path fill="#395076" opacity="1.000000" stroke="none" 
	d="
M253.350830,577.997681 
	C252.937805,577.087219 253.372086,576.422241 254.576141,575.984924 
	C254.480698,576.608704 254.062637,577.264954 253.350830,577.997681 
z"/>
<path fill="#395076" opacity="1.000000" stroke="none" 
	d="
M251.416565,580.121338 
	C250.984940,579.167908 251.345795,578.424805 252.730392,578.072021 
	C252.621536,578.714966 252.168976,579.375549 251.416565,580.121338 
z"/>
<path fill="#395076" opacity="1.000000" stroke="none" 
	d="
M240.353745,593.006226 
	C239.921783,592.102783 240.328171,591.432983 241.514587,590.984009 
	C241.438034,591.612549 241.043167,592.275757 240.353745,593.006226 
z"/>
<path fill="#395076" opacity="1.000000" stroke="none" 
	d="
M238.452820,595.166687 
	C237.955688,594.209961 238.312408,593.453857 239.722382,593.071045 
	C239.629929,593.723938 239.186203,594.390198 238.452820,595.166687 
z"/>
<path fill="#395076" opacity="1.000000" stroke="none" 
	d="
M234.398773,600.097656 
	C234.022522,599.179932 234.335342,598.409241 235.699158,598.038818 
	C235.590988,598.682617 235.143234,599.347412 234.398773,600.097656 
z"/>
<path fill="#395076" opacity="1.000000" stroke="none" 
	d="
M196.320129,606.221313 
	C197.411545,606.022644 197.857208,606.716492 197.818329,608.096924 
	C197.272171,607.796143 196.810974,607.158997 196.320129,606.221313 
z"/>
<path fill="#395076" opacity="1.000000" stroke="none" 
	d="
M214.444962,625.092529 
	C213.999390,624.215515 214.265427,623.458984 215.486969,622.956909 
	C215.453552,623.616516 215.096909,624.317383 214.444962,625.092529 
z"/>
<path fill="#4A6286" opacity="1.000000" stroke="none" 
	d="
M596.200684,325.748718 
	C596.089661,324.563995 596.872192,324.240295 598.240479,324.446777 
	C597.873535,324.991058 597.187500,325.381836 596.200684,325.748718 
z"/>
<path fill="#4A6286" opacity="1.000000" stroke="none" 
	d="
M643.063660,222.605362 
	C642.167114,222.982239 641.449890,222.606018 641.014648,221.357574 
	C641.647644,221.456268 642.312988,221.883224 643.063660,222.605362 
z"/>
<path fill="#4A6286" opacity="1.000000" stroke="none" 
	d="
M252.725677,229.090668 
	C253.083755,230.031113 252.514191,230.594162 251.380981,231.010742 
	C251.517990,230.401581 251.972305,229.771301 252.725677,229.090668 
z"/>
<path fill="#395076" opacity="1.000000" stroke="none" 
	d="
M224.583435,257.876953 
	C225.064514,258.759460 224.779541,259.524536 223.493469,260.013824 
	C223.540298,259.363220 223.921082,258.675171 224.583435,257.876953 
z"/>
<path fill="#4A6286" opacity="1.000000" stroke="none" 
	d="
M687.845459,268.751831 
	C686.823242,269.036072 686.280945,268.442261 686.087280,267.154297 
	C686.687866,267.365417 687.257446,267.905853 687.845459,268.751831 
z"/>
<path fill="#4A6286" opacity="1.000000" stroke="none" 
	d="
M693.841003,276.758972 
	C692.815063,277.002014 692.277100,276.396027 692.093506,275.122101 
	C692.707947,275.346802 693.274658,275.899017 693.841003,276.758972 
z"/>
<path fill="#395076" opacity="1.000000" stroke="none" 
	d="
M209.664154,277.002380 
	C210.130417,277.872528 209.685059,278.518036 208.537155,279.009583 
	C208.610840,278.410675 208.999283,277.761505 209.664154,277.002380 
z"/>
<path fill="#4A6286" opacity="1.000000" stroke="none" 
	d="
M697.354248,284.092834 
	C697.091125,283.545227 697.089905,282.991272 697.189941,282.032043 
	C698.606689,282.287201 698.509155,283.134308 697.354248,284.092834 
z"/>
<path fill="#395076" opacity="1.000000" stroke="none" 
	d="
M199.510834,291.767975 
	C200.031464,292.598419 199.843323,293.395691 198.656067,294.020172 
	C198.630875,293.351379 198.930573,292.618378 199.510834,291.767975 
z"/>
<path fill="#4A6286" opacity="1.000000" stroke="none" 
	d="
M665.115234,296.226318 
	C665.237854,295.358429 665.912476,295.075775 666.991089,295.104614 
	C667.018127,296.190582 666.197937,296.253387 665.115234,296.226318 
z"/>
<path fill="#4A6286" opacity="1.000000" stroke="none" 
	d="
M277.775818,209.229736 
	C278.023346,210.258469 277.347382,210.713318 276.096588,210.884216 
	C275.920197,209.865524 276.767700,209.636459 277.775818,209.229736 
z"/>
<path fill="#4A6286" opacity="1.000000" stroke="none" 
	d="
M611.262451,199.412415 
	C610.407654,200.012360 609.626709,199.716156 608.970398,198.548645 
	C609.651672,198.521652 610.388794,198.830811 611.262451,199.412415 
z"/>
<path fill="#4A6286" opacity="1.000000" stroke="none" 
	d="
M601.127075,323.400238 
	C601.190979,322.482422 601.898865,322.189728 603.020630,322.158234 
	C603.066833,323.228790 602.232849,323.340424 601.127075,323.400238 
z"/>
<path fill="#4A6286" opacity="1.000000" stroke="none" 
	d="
M592.212280,327.809387 
	C592.068665,326.607452 592.812622,326.215485 594.211365,326.400146 
	C593.862183,326.981140 593.188110,327.417084 592.212280,327.809387 
z"/>
<path fill="#4A6286" opacity="1.000000" stroke="none" 
	d="
M300.788147,194.231262 
	C300.988251,195.356033 300.297180,195.809219 298.920135,195.760529 
	C299.221100,195.181488 299.853821,194.703857 300.788147,194.231262 
z"/>
<path fill="#395076" opacity="1.000000" stroke="none" 
	d="
M164.095932,371.231812 
	C165.355377,371.939819 164.758499,372.508636 163.767731,373.083374 
	C163.614349,372.534393 163.716019,371.954681 164.095932,371.231812 
z"/>
<path fill="#081A4B" opacity="1.000000" stroke="none" 
	d="
M427.307831,424.038177 
	C426.513672,423.619659 425.997314,423.134827 426.713470,422.528595 
	C426.887848,422.380981 427.506256,422.757904 428.059418,423.160339 
	C428.111084,423.772308 427.893158,423.981232 427.307831,424.038177 
z"/>
<path fill="#081A4B" opacity="1.000000" stroke="none" 
	d="
M432.038574,420.636932 
	C431.434235,420.004852 430.895630,419.288513 431.633240,418.682648 
	C432.311066,418.125854 432.623322,418.818420 432.943359,419.669128 
	C432.859100,420.315826 432.620941,420.530334 432.038574,420.636932 
z"/>
<path fill="#081A4B" opacity="1.000000" stroke="none" 
	d="
M440.350403,415.033844 
	C440.143280,413.904846 440.628479,413.113770 442.316162,413.171631 
	C442.036835,413.804626 441.368042,414.413879 440.350403,415.033844 
z"/>
<path fill="#4A6286" opacity="1.000000" stroke="none" 
	d="
M444.236328,412.830139 
	C443.995300,411.775787 444.594971,411.235809 445.919434,411.123901 
	C445.680969,411.731537 445.112335,412.285217 444.236328,412.830139 
z"/>
<path fill="#4A6286" opacity="1.000000" stroke="none" 
	d="
M453.184448,406.658661 
	C452.983582,405.648956 453.684845,405.263916 454.882385,405.103210 
	C455.039032,406.106659 454.190491,406.296753 453.184448,406.658661 
z"/>
<path fill="#4A6286" opacity="1.000000" stroke="none" 
	d="
M638.047241,218.614746 
	C637.099548,219.128235 636.478516,218.605286 635.998718,217.425201 
	C636.625122,217.505707 637.294128,217.912064 638.047241,218.614746 
z"/>
<path fill="#4A6286" opacity="1.000000" stroke="none" 
	d="
M470.159332,395.572998 
	C470.048676,394.614410 470.740448,394.245392 471.885010,394.087280 
	C472.036194,395.116608 471.207367,395.305145 470.159332,395.572998 
z"/>
<path fill="#4A6286" opacity="1.000000" stroke="none" 
	d="
M481.195618,388.704407 
	C481.006470,387.635162 481.737885,387.261749 482.995056,387.175171 
	C482.713654,387.726929 482.107910,388.218262 481.195618,388.704407 
z"/>
<path fill="#4A6286" opacity="1.000000" stroke="none" 
	d="
M499.176697,377.630859 
	C499.061646,376.601013 499.802795,376.265930 501.007568,376.174744 
	C501.096832,377.211945 500.241547,377.370575 499.176697,377.630859 
z"/>
<path fill="#081A4B" opacity="1.000000" stroke="none" 
	d="
M430.286926,422.006226 
	C429.836792,421.141663 428.879150,419.751007 431.319855,420.610596 
	C431.242340,421.198486 430.903198,421.597046 430.286926,422.006226 
z"/>
<path fill="#081A4B" opacity="1.000000" stroke="none" 
	d="
M383.663208,456.374603 
	C383.193207,455.496918 382.675934,454.325928 384.786560,454.942078 
	C384.696808,455.466156 384.326447,455.896423 383.663208,456.374603 
z"/>
<path fill="#081A4B" opacity="1.000000" stroke="none" 
	d="
M435.458862,418.503418 
	C435.252197,417.811310 435.618500,417.286163 436.734009,417.072662 
	C436.648224,417.504669 436.217896,417.980316 435.458862,418.503418 
z"/>
<path fill="#4A6286" opacity="1.000000" stroke="none" 
	d="
M674.236572,252.548141 
	C673.814209,252.490479 673.383972,252.132889 672.935730,251.478668 
	C673.354675,251.537430 673.791687,251.892838 674.236572,252.548141 
z"/>
<path fill="#4A6286" opacity="1.000000" stroke="none" 
	d="
M644.517090,223.945404 
	C644.518677,224.121735 644.188110,224.169022 644.188110,224.169022 
	C644.188110,224.169022 643.925842,223.962051 643.912354,223.795746 
	C644.150269,223.473877 644.355774,223.520432 644.517090,223.945404 
z"/>
<path fill="#395076" opacity="1.000000" stroke="none" 
	d="
M154.059357,426.344910 
	C154.173676,426.368469 154.274780,426.532471 154.219498,426.611328 
	C154.164215,426.690216 153.876541,426.614105 153.876541,426.614105 
	C153.876541,426.614105 153.945053,426.321381 154.059357,426.344910 
z"/>
<path fill="#4A6286" opacity="1.000000" stroke="none" 
	d="
M662.138794,239.907959 
	C662.015198,239.911728 662.041382,239.890671 662.037598,239.916229 
	C662.033813,239.941788 662.262390,239.904175 662.138794,239.907959 
z"/>
<path fill="#4A6286" opacity="1.000000" stroke="none" 
	d="
M239.931900,241.568420 
	C240.192261,241.840714 240.125076,242.016968 239.744049,242.122253 
	C239.438690,241.855972 239.496750,241.663025 239.931900,241.568420 
z"/>
<path fill="#4A6286" opacity="1.000000" stroke="none" 
	d="
M664.192139,241.930298 
	C664.065674,241.969147 664.071899,241.919525 664.064331,241.940857 
	C664.056702,241.962189 664.130005,241.708878 664.130005,241.708878 
	C664.130005,241.708878 664.318604,241.891434 664.192139,241.930298 
z"/>
<path fill="#4A6286" opacity="1.000000" stroke="none" 
	d="
M670.351929,248.375671 
	C670.066101,248.504532 669.720825,248.350266 669.338867,247.896759 
	C669.632202,247.762527 669.962402,247.927551 670.351929,248.375671 
z"/>
<path fill="#395076" opacity="1.000000" stroke="none" 
	d="
M280.132690,549.042419 
	C280.215210,549.004089 280.110413,549.118225 280.070801,549.122437 
	C280.031158,549.126648 280.050171,549.080750 280.132690,549.042419 
z"/>
<path fill="#0E3266" opacity="1.000000" stroke="none" 
	d="
M365.005737,467.535706 
	C363.244873,466.371277 364.028809,464.236572 364.027100,462.337006 
	C363.981079,411.537872 363.989288,360.738678 363.986450,309.471130 
	C365.742523,310.638611 364.962616,312.772461 364.964325,314.672913 
	C365.010101,365.470764 365.001923,416.268677 365.005737,467.535706 
z"/>
<path fill="#081A4B" opacity="1.000000" stroke="none" 
	d="
M418.293091,430.356140 
	C418.223236,430.144196 417.354919,430.228546 417.920898,429.648834 
	C418.008362,429.747864 418.095825,429.846893 418.319977,430.102356 
	C418.456665,430.258820 418.301941,430.278656 418.293091,430.356140 
z"/>
</svg>