<svg version="1.1" id="Layer_1" xmlns="http://www.w3.org/2000/svg" xmlns:xlink="http://www.w3.org/1999/xlink" x="0px" y="0px"
	 width="100%" viewBox="0 0 474 474" enable-background="new 0 0 474 474" xml:space="preserve">
<path fill="#EF2F24" opacity="1.000000" stroke="none" 
	d="
M445.000000,475.000000 
	C298.166656,475.000000 151.833313,474.983307 5.500071,475.094055 
	C1.750603,475.096893 0.903397,474.249359 0.906051,470.499939 
	C1.015782,315.500000 1.015782,160.499985 0.906051,5.500066 
	C0.903397,1.750635 1.750635,0.903397 5.500066,0.906051 
	C160.499985,1.015779 315.500000,1.015779 470.499939,0.906051 
	C474.249359,0.903397 475.096619,1.750635 475.093964,5.500067 
	C474.984253,160.499985 474.984253,315.500000 475.093994,470.499939 
	C475.096649,474.249359 474.268524,475.250549 470.495972,475.101898 
	C462.175568,474.774048 453.833344,475.000000 445.000000,475.000000 
z"/>
<path fill="#FDF9F7" opacity="1.000000" stroke="none" 
	d="
M85.839249,245.308731 
	C93.067001,266.070312 81.727913,283.924866 59.755302,286.819122 
	C48.827885,288.258514 38.174004,286.677826 27.717226,283.421936 
	C26.062300,282.906586 24.609560,282.262207 24.170250,280.345764 
	C22.881044,274.721680 21.562550,269.104309 20.218311,263.324310 
	C22.665726,263.229156 23.998808,264.635162 25.542530,265.463470 
	C31.893238,268.871033 38.442822,271.652527 45.683216,272.520111 
	C48.700645,272.881714 51.681610,272.805511 54.589897,271.922302 
	C58.626095,270.696594 61.902435,268.533600 62.805378,264.079071 
	C63.742474,259.455994 61.757790,255.959564 58.100979,253.314362 
	C53.486458,249.976379 48.226101,247.799789 43.182922,245.244644 
	C37.798035,242.516327 32.779728,239.361954 28.666149,234.840790 
	C15.695749,220.585159 20.430819,199.127075 38.335083,192.052338 
	C50.886356,187.092819 63.469955,188.412643 75.967445,192.659866 
	C77.739639,193.262131 78.271523,194.198425 78.241829,195.924057 
	C78.170723,200.056656 78.218864,204.191284 78.218864,208.966110 
	C74.056183,207.325699 70.468307,205.821259 66.815353,204.496216 
	C62.667206,202.991592 58.431953,202.374435 54.105534,203.867050 
	C50.570580,205.086639 47.860237,207.183350 47.256744,211.057281 
	C46.683693,214.735809 48.498123,217.574188 51.376820,219.584091 
	C54.229683,221.575974 57.278019,223.301361 60.312218,225.016998 
	C65.236443,227.801331 70.317383,230.320419 75.148857,233.253433 
	C79.777092,236.063065 83.458153,239.895905 85.839249,245.308731 
z"/>
<path fill="#FEF9F7" opacity="1.000000" stroke="none" 
	d="
M235.304596,237.690491 
	C235.148773,238.511627 235.152115,238.981140 235.256927,239.789444 
	C235.358383,240.128220 235.410446,240.499542 235.401993,240.686829 
	C235.342911,250.943130 235.292282,261.012146 235.314728,271.545105 
	C236.411331,275.466492 236.241592,279.187653 238.151627,282.485443 
	C239.444977,284.718445 237.939438,285.829285 235.707153,286.009216 
	C232.242676,286.288422 228.777908,286.757019 225.296890,286.484375 
	C220.838348,286.135162 216.418869,285.871826 211.923447,286.390808 
	C208.112213,286.830780 207.505905,285.731384 208.881470,281.443573 
	C209.191238,281.086029 209.418289,280.898163 209.436935,280.752014 
	C209.702667,278.601715 209.978287,276.601837 210.522598,274.274872 
	C210.753738,266.948669 210.808472,259.963257 210.797104,252.517059 
	C209.354523,249.023254 210.199890,245.812500 210.003601,242.687347 
	C209.590408,236.109283 206.845291,232.142441 202.501236,232.023788 
	C198.024063,231.901505 195.194305,235.548874 195.062943,242.434753 
	C194.856491,253.258102 195.006195,264.087311 195.003067,274.914062 
	C195.002365,277.320343 195.907028,279.471008 196.833405,281.593567 
	C198.135223,284.576324 197.349915,286.008453 194.013214,285.996124 
	C185.874573,285.966064 177.736526,286.063568 169.598450,286.171814 
	C167.327652,286.201996 165.568176,284.757996 166.920486,282.786926 
	C169.752640,278.658997 169.295563,274.021881 169.202972,269.728027 
	C168.902679,255.800079 169.516754,241.873215 169.010529,227.951080 
	C168.928619,225.698593 167.979797,223.781525 167.170441,221.787415 
	C165.922607,218.713043 167.143967,217.121124 170.258087,217.467697 
	C176.575958,218.170853 182.791809,216.300629 189.536636,216.939011 
	C190.473190,216.900528 190.957870,216.890656 191.796722,216.793427 
	C193.642761,216.269150 194.741409,216.837097 195.418030,218.143341 
	C196.385925,220.011887 197.824219,220.131973 199.891022,219.381836 
	C200.227905,219.331711 200.217499,219.257187 200.247864,219.279419 
	C204.039688,215.999329 208.611725,216.441193 213.524551,216.602707 
	C214.699997,216.802505 215.457031,216.924133 216.598602,217.030380 
	C227.821686,218.700150 233.671600,225.133530 235.304596,237.690491 
z"/>
<path fill="#FDF8F6" opacity="1.000000" stroke="none" 
	d="
M161.176880,250.520996 
	C159.723190,252.855301 157.712875,251.926575 156.031128,251.939957 
	C145.042587,252.027328 134.051407,252.072083 123.064507,251.905350 
	C119.756470,251.855148 118.667969,252.927689 118.921082,256.233368 
	C119.637321,265.587402 125.494133,271.878632 134.850708,273.252747 
	C141.184753,274.182922 147.088989,272.717377 152.887787,270.469879 
	C155.643646,269.401764 158.338226,268.175537 162.138977,266.563507 
	C160.508026,272.091125 159.170731,276.628784 157.829605,281.165314 
	C157.474426,282.366760 156.705429,283.181702 155.513123,283.582062 
	C141.250107,288.371948 126.840240,290.290314 112.664452,283.791229 
	C96.952812,276.587982 90.014984,259.852997 94.595795,241.695312 
	C98.699554,225.428558 113.494759,214.802628 130.839966,215.664688 
	C149.414001,216.587845 161.291504,230.028702 161.176880,250.520996 
z"/>
<path fill="#FDF8F6" opacity="1.000000" stroke="none" 
	d="
M282.666901,273.011139 
	C293.063019,275.139679 301.642090,270.675720 311.547394,266.628784 
	C309.811401,272.299866 308.355682,277.119537 306.850220,281.923615 
	C306.519775,282.978088 305.522797,283.387054 304.576508,283.703217 
	C291.322632,288.131104 277.929962,289.819916 264.462982,284.854523 
	C248.630005,279.016785 240.671387,264.197479 243.167801,245.766449 
	C245.330292,229.800873 257.770111,217.572464 273.532684,215.917557 
	C294.381348,213.728668 309.466125,226.314651 310.830414,246.863922 
	C311.080719,250.633865 310.248230,252.181290 306.025818,252.065994 
	C295.047699,251.766327 284.052887,252.120499 273.070740,251.905731 
	C268.938171,251.824905 267.858246,253.314072 268.401306,257.211700 
	C269.568115,265.586609 274.062744,270.832306 282.666901,273.011139 
z"/>
<path fill="#FDF7F5" opacity="1.000000" stroke="none" 
	d="
M403.269775,287.466064 
	C402.542358,287.230072 402.122528,287.164551 401.385559,287.150482 
	C391.958435,287.178192 384.631836,281.015015 381.317139,272.625000 
	C380.896759,271.560944 380.497192,270.487061 379.910126,269.049286 
	C380.658051,261.039612 383.169464,254.182816 389.627411,249.506424 
	C395.443115,245.295105 402.433411,244.253204 409.274689,243.063126 
	C412.098969,242.571838 414.821045,241.976074 417.283142,240.545212 
	C419.327911,239.356873 420.360748,237.485291 419.898376,235.080215 
	C419.440308,232.697342 417.903931,231.370239 415.481842,231.014359 
	C410.260925,230.247223 405.279846,231.407410 400.300964,232.756760 
	C398.779144,233.169205 397.101227,234.334305 395.639618,232.796738 
	C393.995605,231.067200 395.219208,229.410477 396.077271,227.801056 
	C396.468536,227.067078 397.012573,226.353409 397.148407,225.556366 
	C398.420074,218.094727 403.796021,215.542084 410.349518,215.200684 
	C418.266357,214.788254 426.289398,214.073624 433.875702,217.663132 
	C442.356354,221.675812 446.790527,228.290375 446.965668,237.604828 
	C447.128265,246.252136 446.938202,254.905365 447.023041,263.554932 
	C447.081970,269.565674 448.459778,271.383911 454.340851,272.998383 
	C456.748291,273.659210 457.209290,274.852264 456.457489,277.000793 
	C455.529175,279.653870 454.221222,282.169250 453.854950,285.029877 
	C453.641754,286.695038 452.306152,287.878052 450.726685,287.731354 
	C444.818207,287.182495 438.723114,288.281281 433.021210,285.835785 
	C429.429230,284.295227 426.293884,282.217529 424.332703,278.198853 
	C424.198883,277.804016 424.174133,277.878906 424.212341,277.888672 
	C423.575958,277.636841 423.521973,277.001038 423.222717,276.157776 
	C423.081543,275.887482 423.028992,275.953156 423.069336,275.941223 
	C418.834473,273.189301 418.822601,268.851593 418.630890,264.471222 
	C418.546234,262.537231 419.817810,259.378632 416.845093,259.048737 
	C413.968842,258.729523 412.193359,261.338867 411.348907,263.998871 
	C410.240112,267.491486 412.102936,269.614594 415.010437,271.236847 
	C419.835785,273.929199 420.011597,274.604370 417.588959,279.285126 
	C417.360657,279.726288 417.014923,280.106323 416.811523,280.559174 
	C413.238434,288.513794 412.874634,288.710449 403.269775,287.466064 
z"/>
<path fill="#DE403A" opacity="1.000000" stroke="none" 
	d="
M424.164581,278.175079 
	C430.291199,285.398712 438.414642,287.705536 447.759308,286.898865 
	C450.882294,286.629272 456.880463,278.518829 456.085083,275.521515 
	C455.764832,274.314758 454.658356,274.240906 453.701569,274.073151 
	C447.881531,273.052521 446.453125,269.001221 446.452576,263.828461 
	C446.451752,255.839981 446.614166,247.839111 446.237549,239.865692 
	C445.535706,225.007629 438.644653,217.836395 423.874084,216.157425 
	C421.401764,215.876404 418.887238,215.856537 416.394226,215.886017 
	C402.883789,216.045731 399.616302,218.697861 395.995514,232.668594 
	C400.834747,231.833313 405.253876,229.720383 410.041260,229.748993 
	C412.193024,229.761841 414.401947,229.639252 416.480530,230.075562 
	C419.109161,230.627335 420.884430,232.361130 421.144806,235.239624 
	C421.414062,238.215988 420.333740,240.412399 417.478821,241.631592 
	C413.301086,243.415695 408.817566,243.973297 404.432312,244.897980 
	C400.169739,245.796814 396.048157,247.040436 392.208923,249.111221 
	C386.575073,252.149963 383.058014,256.720795 382.248779,263.180450 
	C382.023346,264.979675 382.180115,266.885284 380.638550,268.951904 
	C379.288208,270.928009 377.415466,271.327789 375.570862,272.454620 
	C374.986206,272.571777 374.750366,272.617279 374.160278,272.745972 
	C371.918488,273.453888 369.884949,273.667114 367.810974,274.955505 
	C365.005920,275.351898 362.574493,275.336121 359.748535,275.022461 
	C351.164856,271.803070 346.482727,265.342194 342.847443,257.362793 
	C342.252106,255.713104 341.876099,254.421921 342.371643,252.657776 
	C342.731720,250.426025 343.122131,248.602325 343.056641,246.327560 
	C343.051819,244.859726 342.931885,243.792480 343.119232,242.333588 
	C344.742523,239.645142 345.121613,236.838882 346.873566,234.568954 
	C348.805725,232.065628 350.838531,229.948914 354.253113,228.823654 
	C355.058685,228.420944 355.544403,228.291412 356.420563,228.251663 
	C359.425995,227.910156 361.996216,227.649445 364.672943,228.502213 
	C370.813782,230.458603 371.074463,230.191650 371.391693,223.423248 
	C371.317871,222.601929 371.267578,222.131531 371.153931,221.307602 
	C370.885010,219.052032 369.497223,218.761612 367.941223,218.453949 
	C360.207550,216.924835 352.570679,216.885315 345.018127,219.482391 
	C340.856232,220.913528 336.266632,221.460388 333.227875,225.752441 
	C332.719391,226.457733 332.352631,226.788544 331.615356,227.247192 
	C329.480652,228.026550 328.246857,229.925629 325.515198,229.356537 
	C327.786438,221.520615 334.257324,218.509155 341.052216,216.247299 
	C350.662567,213.048248 360.521027,213.270554 370.427063,214.956436 
	C374.556671,215.659256 376.187927,217.823105 375.502289,221.880936 
	C374.947571,225.163925 376.258698,228.385132 375.492889,231.780563 
	C374.748688,235.079956 373.274780,235.999466 370.267731,235.065094 
	C369.157104,234.719971 367.978210,234.449219 366.992767,233.868912 
	C356.041382,227.419601 351.413147,234.419693 347.834412,243.457703 
	C345.356323,249.716171 347.076172,256.427734 349.565857,262.423584 
	C351.913391,268.077087 361.765717,270.913910 367.880463,270.136414 
	C375.580750,269.157257 379.060455,264.684662 381.514771,258.180054 
	C384.450958,250.398560 390.568665,246.008621 398.433228,244.330795 
	C402.799011,243.399414 406.844208,240.850784 411.651733,241.708847 
	C412.933472,241.937607 414.568176,241.041702 415.834320,240.306473 
	C417.772156,239.181168 419.372284,237.579697 418.630646,235.032623 
	C417.978668,232.793594 416.120392,232.091782 413.966003,232.001968 
	C409.093933,231.798843 404.368958,232.612030 399.741760,234.079971 
	C397.682098,234.733414 395.335358,235.863724 393.740906,233.788742 
	C392.261108,231.863037 393.280579,229.663391 394.526001,227.762421 
	C394.889313,227.207840 395.319946,226.631332 395.460266,226.006592 
	C397.717896,215.954193 405.092834,213.861847 413.958527,214.031631 
	C420.418213,214.155350 426.909119,213.478912 433.165955,216.067230 
	C442.008240,219.725067 447.940704,228.131256 447.962799,237.647797 
	C447.982513,246.137848 448.060638,254.629608 447.922821,263.117523 
	C447.844238,267.957397 449.565613,271.188629 454.600494,272.047668 
	C457.738403,272.583069 458.313782,274.452850 457.337341,277.146118 
	C456.361511,279.837738 454.431793,282.255890 457.297302,285.290161 
	C458.468536,286.530396 456.693634,288.855499 454.904419,288.684296 
	C446.856628,287.914337 438.487396,289.343048 430.829590,285.983917 
	C427.739838,284.628540 424.574036,282.625214 424.164581,278.175079 
z"/>
<path fill="#D75550" opacity="1.000000" stroke="none" 
	d="
M189.630157,216.721466 
	C183.455246,218.521896 176.781845,218.132889 170.150513,218.233643 
	C167.563339,218.272949 166.242310,218.645706 167.984360,221.523163 
	C169.756592,224.450455 170.081223,227.767578 170.074997,231.145737 
	C170.050476,244.452667 170.063934,257.759705 170.088806,271.066681 
	C170.096313,275.082672 170.006470,279.064789 167.893341,282.672180 
	C166.608826,284.865021 167.469955,285.665710 169.764771,285.656281 
	C177.915131,285.622864 186.065689,285.596313 194.216003,285.620026 
	C196.726105,285.627319 197.755020,284.805359 196.246674,282.410614 
	C194.668533,279.905060 194.286560,277.078735 194.276642,274.271667 
	C194.238983,263.627777 194.177460,252.977478 194.500977,242.341019 
	C194.736816,234.587128 197.168854,231.240540 201.739349,231.043640 
	C206.707611,230.829620 209.501190,234.079514 210.509018,241.701675 
	C210.921143,244.818680 210.828949,248.002380 210.848602,251.606003 
	C208.542862,250.490891 209.291611,248.142487 209.232559,246.071457 
	C209.142120,242.899796 209.250610,239.698654 207.811539,236.772995 
	C206.634186,234.379349 204.759720,232.921783 201.906525,232.894775 
	C199.013138,232.867416 197.899277,234.814896 196.892441,237.016251 
	C195.891144,239.205521 195.797501,241.524536 195.797592,243.863617 
	C195.797913,253.189209 195.857910,262.515228 195.782150,271.840179 
	C195.750275,275.762817 196.649139,279.393250 198.230545,282.952576 
	C199.540741,285.901489 199.288681,287.683411 195.158463,287.251312 
	C186.721481,286.368744 178.256119,287.206451 169.808121,287.485291 
	C167.974167,287.545807 166.451828,287.268341 165.330658,285.917145 
	C163.883667,284.173248 165.236191,282.752777 166.283997,281.527435 
	C169.488983,277.779297 168.329529,273.153931 168.423645,269.031738 
	C168.711121,256.437988 168.244980,243.828461 168.188599,231.224548 
	C168.172577,227.642502 167.725952,224.352005 165.567139,221.304291 
	C163.645935,218.592056 165.264313,216.061905 167.910278,216.518112 
	C175.096710,217.757202 182.176270,214.918701 189.630157,216.721466 
z"/>
<path fill="#DE403A" opacity="1.000000" stroke="none" 
	d="
M403.162018,287.601562 
	C403.619415,287.226624 404.275208,287.117676 404.934052,287.094696 
	C413.330811,286.802338 415.485870,285.026672 417.778137,276.785797 
	C418.225616,275.177094 418.156738,274.328857 416.280029,274.044189 
	C411.146454,273.265472 408.132355,270.462982 408.395844,265.012848 
	C408.600281,260.784760 413.783142,256.082062 418.902588,254.955170 
	C421.556030,254.371078 421.083954,256.101074 421.131927,257.511047 
	C421.333557,263.436584 420.390900,269.484619 423.084534,275.534729 
	C419.501770,276.090729 417.594391,279.344330 417.819763,281.561859 
	C418.479462,288.053802 413.839874,287.933441 410.037659,288.745148 
	C407.881500,289.205444 405.398193,289.624176 403.162018,287.601562 
z"/>
<path fill="#DE403A" opacity="1.000000" stroke="none" 
	d="
M380.951050,269.013031 
	C381.512421,269.788208 382.401764,270.470367 382.649231,271.335999 
	C385.225372,280.348114 391.577362,284.993286 400.714050,287.055115 
	C400.257782,288.972321 398.974365,288.401794 397.726135,287.852295 
	C396.132782,287.150909 394.644226,286.958801 392.989655,287.899933 
	C391.607452,288.686157 389.501740,290.429047 390.670502,286.340759 
	C391.136719,284.710083 388.198578,283.984589 386.739532,283.196136 
	C384.570740,282.024200 385.083008,277.692566 381.672821,278.621887 
	C379.092590,279.324951 379.433350,282.435822 378.373749,284.420807 
	C377.704773,285.674072 376.497437,286.286163 375.191864,286.630615 
	C362.489563,289.981598 349.900909,291.353333 337.157990,286.264008 
	C334.213806,285.088135 331.225494,285.113953 329.769806,281.531738 
	C329.290375,280.351837 326.928040,280.042847 325.620850,279.073730 
	C321.641968,276.123901 319.485718,272.216827 319.811646,266.723694 
	C319.907990,266.122345 320.045380,265.927765 320.536621,265.684875 
	C322.802094,266.154572 324.190826,267.490326 324.670898,269.237213 
	C326.449554,275.709412 331.974731,278.147522 337.375122,281.213928 
	C338.461639,281.491882 339.097168,281.875824 339.994141,282.560974 
	C348.445465,287.276245 357.017395,286.288300 365.980499,284.579163 
	C366.777496,284.179901 367.253845,284.018127 368.128418,283.929321 
	C373.723358,283.987671 376.745911,281.607971 377.712585,276.306702 
	C378.145447,273.932739 378.947510,271.494385 380.781799,269.233795 
	C381.037933,268.980591 380.981049,269.005219 380.951050,269.013031 
z"/>
<path fill="#D75550" opacity="1.000000" stroke="none" 
	d="
M208.869553,281.237244 
	C207.457718,284.603333 208.357468,285.914642 212.436142,285.755066 
	C219.522079,285.477783 226.626526,285.620270 233.722473,285.677979 
	C236.843582,285.703369 239.214905,285.608215 236.755295,281.481110 
	C235.210052,278.888245 235.042816,275.831848 235.270432,272.416412 
	C237.921875,275.731964 237.888474,280.401123 239.990387,284.364380 
	C240.937332,286.149933 238.970535,287.616211 236.740601,287.523956 
	C230.985611,287.285858 225.239883,288.200470 219.446686,287.135284 
	C216.786636,286.646179 213.879166,287.580109 211.076889,287.759583 
	C209.246460,287.876862 207.232132,287.942932 206.410110,285.830933 
	C205.598892,283.746735 206.801468,282.375732 208.869553,281.237244 
z"/>
<path fill="#DE403A" opacity="1.000000" stroke="none" 
	d="
M319.846924,266.220642 
	C318.037872,265.791199 317.158966,267.268524 315.684753,268.645142 
	C317.216766,255.737259 313.521118,242.686890 322.049774,231.700851 
	C322.448059,231.187851 322.942627,230.749603 323.994232,230.333038 
	C326.552979,233.318298 323.564697,235.109222 322.878967,237.786407 
	C322.747528,238.350998 322.708466,238.580399 322.627991,239.158020 
	C322.556335,239.981857 322.513489,240.456375 322.388824,241.291504 
	C322.147766,242.125961 321.924774,242.572037 321.463043,243.325684 
	C318.942749,249.061127 319.019684,254.555481 320.483154,260.160675 
	C320.924286,261.850403 321.920929,263.618469 320.390503,265.678284 
	C320.086060,265.940094 319.923248,266.124298 319.846924,266.220642 
z"/>
<path fill="#D75550" opacity="1.000000" stroke="none" 
	d="
M235.316376,237.690292 
	C233.363571,227.692047 228.319336,220.121414 217.276199,217.213470 
	C221.547852,215.640274 225.630356,217.986847 228.218475,220.633423 
	C232.526291,225.038498 237.503342,229.876343 235.316376,237.690292 
z"/>
<path fill="#D75550" opacity="1.000000" stroke="none" 
	d="
M199.881668,219.197540 
	C198.673431,220.791611 196.930038,221.944611 194.914551,222.728348 
	C192.842422,221.281357 194.892288,218.386856 192.466858,216.890121 
	C195.469559,214.806625 196.946426,218.676971 199.881668,219.197540 
z"/>
<path fill="#D75550" opacity="1.000000" stroke="none" 
	d="
M213.642578,216.492004 
	C209.529129,216.929901 205.128876,217.248123 200.664185,219.254456 
	C203.646469,214.004593 208.646530,215.816925 213.642578,216.492004 
z"/>
<path fill="#D75550" opacity="1.000000" stroke="none" 
	d="
M210.399918,274.155579 
	C211.268127,276.062988 210.564178,278.032959 209.697906,280.309387 
	C209.050095,278.465302 208.728043,276.333405 210.399918,274.155579 
z"/>
<path fill="#DE403A" opacity="1.000000" stroke="none" 
	d="
M423.110596,276.192749 
	C423.447601,276.354034 423.813660,276.820618 424.215118,277.592773 
	C423.880249,277.431610 423.509979,276.964783 423.110596,276.192749 
z"/>
<path fill="#D75550" opacity="1.000000" stroke="none" 
	d="
M235.511581,240.809387 
	C235.393539,240.874130 235.191757,240.507874 235.275070,240.318054 
	C235.662170,240.233566 235.752594,240.439026 235.511581,240.809387 
z"/>
<path fill="#DE403A" opacity="1.000000" stroke="none" 
	d="
M324.175354,230.136993 
	C324.181458,229.741196 324.381409,229.500076 324.769714,229.111526 
	C324.937958,228.947388 325.230499,229.256470 325.375977,229.411728 
	C325.416595,229.758255 325.311737,229.949509 324.951782,230.345642 
	C324.696655,230.550522 324.349030,230.274948 324.175354,230.136993 
z"/>
<path fill="#E43834" opacity="1.000000" stroke="none" 
	d="
M131.861694,239.307159 
	C128.904449,239.303986 126.426949,239.348404 123.950584,239.313217 
	C119.524963,239.250305 118.839569,238.105621 120.732285,233.936401 
	C122.253029,230.586578 124.886108,228.953705 128.567123,228.931259 
	C132.033752,228.910110 134.615494,230.265350 136.111160,233.496674 
	C138.115265,237.826492 137.277481,239.137741 131.861694,239.307159 
z"/>
<path fill="#E23930" opacity="1.000000" stroke="none" 
	d="
M280.939148,239.310333 
	C277.786865,239.295105 275.115021,239.170975 272.458588,239.320389 
	C268.802521,239.526016 268.682495,237.691315 269.662354,234.980042 
	C270.983521,231.324524 273.447083,229.211731 277.415436,229.007263 
	C280.851044,228.830246 283.647339,229.837036 285.289429,233.108322 
	C287.535461,237.582794 286.545502,239.185486 280.939148,239.310333 
z"/>
<path fill="#FEFDFE" opacity="1.000000" stroke="none" 
	d="
M339.231506,284.265015 
	C338.322723,284.177368 337.774506,283.995728 337.044617,283.585510 
	C334.107483,280.849396 332.145294,277.551025 328.437408,275.970581 
	C326.181335,275.008942 325.939972,272.673340 327.138397,270.069916 
	C330.463867,267.699921 332.427216,269.921204 334.771393,271.901123 
	C335.278870,272.608612 335.538788,273.026001 336.013916,273.710052 
	C336.922729,274.596680 337.681763,274.751404 338.780579,274.123474 
	C340.000000,272.693878 341.273804,271.710693 341.965027,270.171143 
	C341.981812,270.091492 341.890198,270.354767 341.811646,270.547607 
	C340.216003,272.257935 339.251465,274.803955 335.966553,273.377594 
	C334.779541,271.890381 334.063110,270.663818 333.682800,269.173706 
	C331.693176,261.377930 333.081360,259.129456 341.340637,257.711609 
	C345.352142,257.753082 345.362244,260.962769 346.582825,263.150116 
	C349.245148,267.921173 351.823212,272.837097 358.774384,272.734253 
	C361.778290,272.667877 364.417603,272.698029 367.495300,272.786346 
	C369.980499,273.403534 371.825165,272.443878 374.133850,272.091858 
	C375.980408,272.298309 376.764099,273.407196 377.787384,274.771484 
	C376.761475,278.421204 377.346069,283.026642 371.588867,283.050812 
	C370.834686,282.903717 370.426788,282.794952 369.744446,282.615814 
	C369.271729,282.566406 369.079376,282.565826 368.595398,282.600952 
	C366.097260,282.724823 364.368774,283.827728 362.458344,285.317749 
	C360.209839,285.688202 358.236816,285.564270 357.284302,283.696899 
	C354.801971,278.830353 349.812988,280.227386 345.919983,278.911957 
	C345.724457,278.845947 345.444305,279.317291 345.224915,279.975525 
	C344.793365,281.539032 343.732269,282.257019 342.778961,283.493622 
	C341.589386,284.273865 340.554749,283.980530 339.231506,284.265015 
z"/>
<path fill="#FDF7F5" opacity="1.000000" stroke="none" 
	d="
M330.901031,225.257553 
	C342.908020,214.546860 357.097778,214.916183 371.632660,217.146744 
	C373.379028,217.414764 373.490448,218.758484 373.275757,220.573059 
	C371.200867,222.882294 369.230835,222.546860 366.796478,221.671997 
	C360.532990,219.421066 354.231842,219.834503 347.857269,222.717804 
	C347.027161,223.639099 346.622314,224.400085 346.501251,225.631058 
	C346.394897,226.616608 346.109833,227.195557 345.771088,227.753387 
	C346.483093,227.666626 346.737305,226.951569 347.299774,226.639328 
	C347.864105,226.326080 348.374603,225.915131 349.364716,225.617493 
	C352.610413,225.317993 354.537872,226.493881 355.194763,229.739120 
	C350.263824,232.583542 347.136871,236.394455 345.458679,241.842041 
	C342.966187,243.031540 342.821106,240.811172 341.633057,239.559753 
	C341.130219,238.959076 340.863953,238.597580 340.463867,237.916046 
	C338.553162,234.732697 336.567902,231.983490 337.805450,228.208694 
	C338.073669,227.390472 336.861023,228.112534 335.979370,228.070099 
	C333.828796,227.764236 332.113495,227.284637 330.901031,225.257553 
z"/>
<path fill="#FEFDFE" opacity="1.000000" stroke="none" 
	d="
M335.754547,227.133911 
	C336.401459,226.101501 336.823975,225.214432 337.206390,224.310364 
	C337.867859,222.746689 338.987396,221.697937 340.651306,222.513367 
	C342.391479,223.366165 341.444519,224.800385 340.759827,225.875473 
	C338.360168,229.643402 339.244812,233.060410 341.859070,236.678467 
	C342.063477,237.348572 342.218567,237.643402 342.752045,237.927094 
	C345.227203,238.417221 344.021118,240.557495 345.043365,241.896866 
	C345.151123,243.155716 345.064514,244.202072 344.850006,245.622192 
	C344.028168,246.885391 343.134216,247.387955 341.599670,247.348694 
	C340.185944,247.016434 339.443787,246.245743 338.189148,245.637115 
	C336.791168,244.864838 336.167603,243.908356 335.712280,242.548630 
	C335.632416,242.332260 335.381287,242.075653 335.381287,242.075653 
	C335.381287,242.075653 335.012939,242.107300 334.725098,242.243546 
	C332.629303,243.074097 330.948578,242.577805 328.977722,241.597260 
	C328.143707,240.943344 328.811523,241.455444 328.286285,241.044876 
	C322.476440,236.503418 322.662720,233.300919 329.347107,228.263947 
	C330.387604,227.887421 331.092834,227.946625 332.085571,228.238907 
	C332.543793,228.361160 332.710175,228.397110 333.099152,228.419220 
	C333.321747,228.405380 333.727539,228.221375 333.919708,228.081726 
	C334.525391,227.607376 335.008911,227.418945 335.754547,227.133911 
z"/>
<path fill="#FEFDFE" opacity="1.000000" stroke="none" 
	d="
M344.972351,222.434082 
	C353.048035,217.173523 361.324249,216.165359 369.949493,220.470734 
	C370.658234,220.824524 371.549774,220.812180 372.750244,220.977051 
	C373.217194,221.439087 373.290283,221.894012 373.242432,222.678009 
	C372.741425,223.336304 372.338837,223.701370 372.251770,224.189346 
	C371.118042,230.544052 367.808716,231.877563 362.981079,227.752747 
	C360.283844,225.448135 357.421936,224.188187 353.451416,225.067688 
	C350.349335,224.382416 347.156494,225.387970 344.972351,222.434082 
z"/>
<path fill="#FDF7F5" opacity="1.000000" stroke="none" 
	d="
M353.773987,223.300232 
	C358.464294,223.198593 363.134338,222.016037 365.804779,227.781326 
	C366.629242,229.561310 369.828979,227.451340 371.096466,225.556885 
	C371.590210,224.818893 371.443634,223.638657 372.826111,223.100342 
	C373.227142,223.484756 373.401794,223.958649 373.428223,224.440643 
	C373.917389,233.380905 373.898926,233.426590 365.627289,230.747574 
	C363.068726,229.918915 360.508179,229.686508 357.429657,229.826599 
	C355.972290,227.640549 352.529510,226.862183 353.773987,223.300232 
z"/>
<path fill="#FDF7F5" opacity="1.000000" stroke="none" 
	d="
M370.681946,280.791565 
	C376.352264,282.942474 374.455566,277.020416 376.889404,275.328186 
	C376.746338,273.592773 376.090485,272.420929 374.855225,271.198608 
	C376.453125,269.499512 378.419250,268.715302 380.791595,268.635406 
	C381.105560,273.516785 379.048553,277.530396 377.621979,281.637115 
	C376.438721,285.043304 372.498413,284.625916 369.353516,285.789429 
	C367.708405,284.574280 367.532501,283.214355 368.719482,281.358765 
	C369.006104,281.008545 369.000000,281.000000 369.004242,281.003052 
	C369.389465,280.624084 369.846069,280.477417 370.681946,280.791565 
z"/>
<path fill="#FDF7F5" opacity="1.000000" stroke="none" 
	d="
M330.251587,228.593323 
	C329.772461,229.222900 329.571625,229.502472 329.299988,229.659851 
	C327.115051,230.925751 326.892456,233.413055 325.847443,235.352921 
	C324.072906,238.647003 329.757568,236.577286 328.968292,239.687286 
	C326.470856,243.601501 325.365997,243.545517 321.012970,239.177277 
	C321.068329,235.774155 323.168823,233.685471 324.566284,230.874390 
	C324.983643,230.437027 325.206909,230.248199 325.443970,229.775497 
	C326.763519,228.338089 328.005554,227.109222 329.547607,225.739868 
	C330.671417,226.309387 330.769928,227.201431 330.251587,228.593323 
z"/>
<path fill="#FDF7F5" opacity="1.000000" stroke="none" 
	d="
M358.860779,272.438354 
	C354.357635,274.759186 348.918365,271.778839 346.213043,265.345337 
	C345.376251,263.355377 344.838348,261.247498 343.252136,259.247223 
	C342.612671,258.492706 342.494446,257.932861 342.960571,256.977478 
	C343.561279,256.625916 343.861267,256.610046 344.609131,256.545105 
	C347.559875,263.466888 350.441833,270.111969 358.860779,272.438354 
z"/>
<path fill="#FEFDFE" opacity="1.000000" stroke="none" 
	d="
M353.574158,223.003479 
	C354.655396,225.189896 357.412872,226.342712 356.979980,229.416779 
	C356.568756,229.902069 356.146057,230.030075 355.390503,230.148865 
	C353.382751,228.929031 351.817780,227.525925 349.354858,227.047302 
	C347.692230,226.791672 346.198975,227.022186 345.180542,225.286621 
	C344.308014,224.227692 344.054443,223.389786 344.818024,222.217926 
	C347.543152,223.658585 350.410431,222.762573 353.574158,223.003479 
z"/>
<path fill="#FEFDFE" opacity="1.000000" stroke="none" 
	d="
M345.138214,256.117493 
	C344.717712,256.584747 344.378357,256.673431 343.527435,256.885010 
	C341.298706,258.406860 339.441467,259.683777 337.389282,257.830505 
	C335.502991,256.127075 335.620789,254.129364 337.698914,251.984970 
	C338.927094,251.429962 339.765076,251.084686 341.064789,250.701385 
	C342.448212,250.472504 343.311005,250.654068 344.389099,251.550964 
	C344.867584,253.171890 345.043488,254.455383 345.138214,256.117493 
z"/>
<path fill="#FEFAFE" opacity="1.000000" stroke="none" 
	d="
M330.283569,229.065521 
	C329.975800,228.149307 329.945465,227.298676 329.881378,226.023743 
	C329.912170,225.308258 330.078461,225.097336 330.550964,224.931641 
	C332.480469,224.980103 334.188629,225.112549 335.726440,226.758545 
	C335.746613,227.497742 335.496216,227.999237 335.122803,228.752502 
	C335.160767,229.510803 335.058746,229.957260 334.360168,230.511047 
	C333.525787,230.744156 333.040131,230.689758 332.289856,230.251221 
	C331.525452,229.714966 331.043243,229.423035 330.283569,229.065521 
z"/>
<path fill="#FFFBFE" opacity="1.000000" stroke="none" 
	d="
M344.774811,251.533630 
	C343.767242,251.921265 342.842743,251.954163 341.455750,251.991455 
	C339.237640,250.423019 339.400818,248.593506 340.638123,246.335617 
	C341.989410,246.000702 342.983154,245.998306 344.349518,245.995941 
	C344.767395,247.723602 344.812653,249.451248 344.774811,251.533630 
z"/>
<path fill="#FEFDFE" opacity="1.000000" stroke="none" 
	d="
M374.541382,270.860352 
	C376.765381,271.217377 378.490326,271.779907 377.192261,274.717834 
	C376.151367,274.467438 375.301483,273.934875 374.221130,273.198914 
	C373.653564,272.620941 373.501892,272.186096 373.786682,271.394714 
	C374.009796,271.107574 374.334412,270.849915 374.541382,270.860352 
z"/>
<path fill="#FDF7F5" opacity="1.000000" stroke="none" 
	d="
M373.650787,271.097412 
	C374.007324,271.527161 374.004883,271.946777 373.996521,272.680969 
	C372.159210,273.224243 370.383606,274.500183 368.204651,273.066895 
	C369.719727,272.258759 371.505768,271.673004 373.650787,271.097412 
z"/>
<path fill="#FDF7F5" opacity="1.000000" stroke="none" 
	d="
M328.273865,269.739563 
	C327.881561,272.447601 328.186279,274.367767 331.064758,275.434387 
	C334.202271,276.597046 334.707428,280.331268 336.800018,283.005493 
	C328.926453,280.130402 323.904449,274.089081 320.310913,266.195557 
	C317.864624,258.202789 317.029755,250.416992 319.472076,242.188873 
	C323.412659,241.443192 322.984924,244.314499 323.175690,246.483398 
	C323.490356,250.060638 322.703339,253.576828 324.094727,257.269867 
	C325.102356,259.944244 325.344025,262.270508 328.394897,263.751343 
	C330.865601,264.950562 330.896088,267.486145 328.273865,269.739563 
z"/>
<path fill="#FDF7F5" opacity="1.000000" stroke="none" 
	d="
M343.244690,279.240112 
	C343.162628,275.062897 345.740692,276.129547 347.721649,276.973480 
	C350.336060,278.087250 352.865784,279.185028 355.789215,279.055573 
	C357.217773,278.992340 358.451019,279.393616 358.438477,281.222534 
	C358.425415,283.131775 359.636475,283.785339 361.645142,283.983459 
	C363.774597,284.308685 366.020355,282.756287 367.150452,285.738892 
	C357.698151,288.925934 348.503448,288.072479 339.147705,284.590210 
	C339.678528,283.927490 340.486115,283.495972 341.646851,283.031006 
	C343.875763,282.222778 345.751923,281.451904 347.783447,282.386841 
	C346.026093,281.873566 344.658478,280.823334 343.244690,279.240112 
z"/>
<path fill="#FEFCFE" opacity="1.000000" stroke="none" 
	d="
M367.399475,286.177063 
	C365.568665,285.570435 364.069733,284.986389 362.281921,284.205902 
	C363.533356,281.889648 365.497742,280.650848 368.618011,281.007690 
	C368.998383,282.335449 368.990662,283.662354 368.983337,285.387451 
	C368.566254,285.923645 368.148804,286.061646 367.399475,286.177063 
z"/>
<path fill="#FEFEFF" opacity="1.000000" stroke="none" 
	d="
M328.334229,270.088776 
	C329.012299,266.983124 328.863007,264.794861 324.771576,264.929199 
	C322.727509,264.996338 320.887756,263.933746 321.218628,261.752289 
	C321.981049,256.725311 319.026978,251.848343 320.910797,246.782516 
	C321.392151,245.488037 321.062622,243.829819 319.940002,242.178528 
	C319.769226,241.417007 319.860901,240.979950 320.122406,240.250153 
	C320.394867,239.763000 320.497559,239.568573 320.723297,239.068146 
	C320.846313,238.762131 320.855011,238.778717 320.839844,238.764694 
	C323.497620,238.649597 325.467316,241.806763 328.711029,240.194977 
	C330.748596,240.313049 332.499207,240.627121 334.630981,240.967239 
	C335.396851,240.618942 335.855042,240.468506 336.692017,240.765778 
	C337.170563,242.059555 337.587250,242.992584 338.753174,243.828110 
	C340.591217,246.651642 340.104431,249.430817 339.278259,252.604248 
	C337.838135,253.796005 336.961823,254.708923 337.962982,256.206726 
	C339.118835,257.935913 340.735443,257.558136 342.684998,257.065369 
	C343.014526,257.449005 343.013214,257.890106 343.013275,258.661865 
	C341.897491,259.268616 340.792786,259.703156 339.660950,259.791931 
	C335.791809,260.095367 334.545258,262.029266 335.391479,265.775513 
	C335.856415,267.833954 335.814026,270.006958 336.000793,272.566589 
	C335.836487,273.130615 335.671753,273.256348 335.259003,273.194702 
	C332.231384,273.557739 330.794159,271.101349 328.334229,270.088776 
z"/>
<path fill="#FDF7F5" opacity="1.000000" stroke="none" 
	d="
M320.642761,238.896133 
	C320.820251,239.065552 320.727295,239.346863 320.429810,239.781738 
	C320.172333,239.621582 320.221313,239.312500 320.642761,238.896133 
z"/>
<path fill="#FEFBFE" opacity="1.000000" stroke="none" 
	d="
M354.218567,283.692535 
	C350.137604,285.366241 346.428619,283.827972 342.330566,283.205750 
	C342.290314,281.888794 342.580688,280.780029 342.937073,279.333191 
	C346.678802,278.984558 349.783447,281.261261 353.689697,281.788116 
	C354.382263,282.381500 354.527588,282.844604 354.218567,283.692535 
z"/>
<path fill="#FDF7F5" opacity="1.000000" stroke="none" 
	d="
M335.010010,273.337769 
	C335.010986,273.007324 335.506104,273.006104 335.753662,273.005493 
	C338.755249,272.918915 339.691223,271.145386 339.980072,268.379608 
	C340.741302,266.675293 341.709198,265.852509 343.666687,266.758514 
	C345.484406,270.801025 343.438385,272.870117 340.187256,274.721802 
	C338.750702,276.444763 337.312714,276.491943 335.374084,275.292816 
	C335.007874,274.549561 335.008453,274.108887 335.010010,273.337769 
z"/>
<path fill="#FEFAFE" opacity="1.000000" stroke="none" 
	d="
M335.048523,275.336975 
	C336.391388,274.991425 337.775421,274.992615 339.574463,274.993225 
	C340.887451,276.843475 339.472534,277.258423 338.246246,277.623230 
	C336.560089,278.124939 335.419037,277.506805 335.048523,275.336975 
z"/>
<path fill="#FEFEFF" opacity="1.000000" stroke="none" 
	d="
M344.069946,266.729584 
	C342.872559,267.253906 341.755219,267.492371 340.322083,267.871643 
	C340.136963,266.568665 339.785980,264.793518 341.737671,264.336487 
	C343.285553,263.973999 344.360901,264.579712 344.069946,266.729584 
z"/>
<path fill="#FEFCFE" opacity="1.000000" stroke="none" 
	d="
M371.044617,280.700317 
	C370.546295,281.014221 370.106903,281.011383 369.338013,281.007324 
	C369.264008,279.742920 368.517883,277.632141 370.554260,277.693237 
	C372.182556,277.742096 371.090973,279.412720 371.044617,280.700317 
z"/>
<path fill="#FEFBFF" opacity="1.000000" stroke="none" 
	d="
M344.800049,225.304504 
	C346.372498,225.071274 347.856628,224.884201 348.865509,226.696060 
	C348.357574,228.333893 347.557556,229.605774 347.104492,230.991135 
	C346.623566,232.461624 346.378784,234.169785 344.314301,233.509537 
	C342.446503,232.912201 341.924042,231.210770 342.504059,229.478027 
	C342.964478,228.102524 343.898041,226.885345 344.800049,225.304504 
z"/>
<path fill="#FEFCFE" opacity="1.000000" stroke="none" 
	d="
M342.858521,237.802521 
	C342.705322,239.088608 342.469696,240.299179 341.002289,240.353210 
	C340.046265,240.388397 339.512878,239.735352 339.459290,238.832916 
	C339.382843,237.546249 340.371124,237.280060 341.686157,237.030701 
	C342.269897,237.178574 342.501617,237.387238 342.858521,237.802521 
z"/>
<path fill="#FDF7F5" opacity="1.000000" stroke="none" 
	d="
M339.286987,252.928955 
	C339.011169,250.297379 339.010132,247.601013 339.010651,244.455505 
	C339.609009,244.482986 340.205780,244.959579 340.899109,245.719635 
	C340.995209,247.715469 340.994751,249.427856 340.993774,251.568054 
	C340.516052,252.285309 340.038910,252.574738 339.286987,252.928955 
z"/>
<path fill="#FDF7F5" opacity="1.000000" stroke="none" 
	d="
M337.116333,240.690369 
	C336.556061,240.990723 336.114838,240.991882 335.342896,240.993164 
	C335.147949,239.387619 334.637787,237.699448 335.838593,235.799820 
	C337.540649,237.068100 337.822601,238.562469 337.116333,240.690369 
z"/>
<path fill="#FDF7F5" opacity="1.000000" stroke="none" 
	d="
M331.883728,230.286346 
	C332.449860,230.008484 332.892090,230.010056 333.666077,230.013489 
	C334.392090,230.386383 334.540741,230.838211 334.224915,231.678101 
	C333.440216,232.716537 332.852844,233.795364 331.806610,233.132050 
	C330.813995,232.502716 331.465149,231.439941 331.883728,230.286346 
z"/>
<path fill="#FFF7FE" opacity="1.000000" stroke="none" 
	d="
M334.326599,231.956619 
	C334.003967,231.547531 334.001801,231.109695 333.998718,230.343628 
	C334.254913,229.826752 334.489746,229.613586 334.851013,229.190063 
	C337.431763,230.286407 337.049469,231.229004 334.326599,231.956619 
z"/>
<path fill="#FEFDFE" opacity="1.000000" stroke="none" 
	d="
M354.232971,283.927856 
	C353.998749,283.556976 353.999939,283.109802 354.002380,282.327118 
	C355.022217,282.395813 355.978607,282.815552 354.232971,283.927856 
z"/>
</svg>