<svg version="1.1" id="Layer_1" xmlns="http://www.w3.org/2000/svg" xmlns:xlink="http://www.w3.org/1999/xlink" x="0px" y="0px"
	 width="100%" viewBox="0 0 500 500" enable-background="new 0 0 500 500" xml:space="preserve">
<path fill="#FEFEFE" opacity="1.000000" stroke="none" 
	d="
M1.247268,266.298767 
	C1.000000,256.312439 1.000000,246.624878 1.000000,236.468658 
	C3.206831,231.461594 1.893480,226.540527 2.436424,221.815033 
	C6.429077,187.065155 17.308487,154.690048 35.024967,124.564842 
	C44.682388,108.143311 56.134804,93.153496 69.233025,79.273186 
	C107.578346,38.638306 154.386917,14.004410 209.181351,4.115957 
	C217.856262,2.550442 226.655701,2.266160 235.703979,1.246723 
	C245.687561,1.000000 255.375122,1.000000 265.531342,1.000000 
	C270.355988,3.276562 275.116913,1.886613 279.666107,2.366975 
	C304.500519,4.989302 328.236725,11.514181 351.053772,21.516951 
	C356.939880,24.097359 363.226410,25.985729 368.191040,30.952557 
	C368.200775,34.020599 366.325653,35.851048 364.894287,37.830902 
	C351.191925,56.783733 339.756989,77.087547 329.002594,97.799911 
	C306.046112,142.012772 285.883331,187.552917 264.936218,232.720169 
	C262.764618,237.402725 260.397888,241.988327 258.368134,246.745300 
	C256.364685,251.440628 254.526413,251.623886 251.356445,247.509521 
	C246.579178,241.309052 241.783157,235.165710 236.396637,229.443008 
	C218.746094,210.690857 198.007233,197.487595 171.700394,196.858765 
	C147.650162,196.283875 121.702812,208.115967 110.490303,236.110703 
	C102.813286,255.278259 102.632103,274.706329 108.012131,294.398712 
	C114.519272,318.216675 126.405357,338.997833 143.907486,356.369019 
	C154.705444,367.086182 167.102676,375.844208 180.398254,383.261536 
	C186.676407,386.764008 187.141113,388.246887 183.432587,394.615753 
	C174.856354,409.344147 165.270752,423.418335 153.360489,435.605438 
	C142.674088,446.540253 130.488052,455.550964 114.544769,458.670227 
	C112.630638,459.081421 111.195694,458.797485 109.919380,457.862244 
	C101.867035,451.961853 93.871872,445.987213 86.363815,439.393524 
	C85.476906,438.614624 84.797813,437.665344 84.814896,436.066284 
	C86.252960,434.218750 88.077286,433.987457 89.891014,433.718567 
	C93.018333,433.254883 96.096931,432.569519 99.043007,431.410370 
	C107.816071,427.958496 111.301903,421.839081 109.270050,413.539185 
	C107.171066,404.965088 99.245399,399.035156 90.937462,399.915588 
	C81.485542,400.917297 75.255737,406.449036 70.853401,414.449677 
	C70.058578,415.894165 69.728127,417.583618 68.251167,419.056335 
	C65.234161,419.284882 63.845997,417.241180 62.363640,415.522644 
	C29.811640,377.784027 9.886018,334.296204 2.942419,284.898132 
	C2.088269,278.821533 2.363299,272.666565 1.247268,266.298767 
z"/>
<path fill="#FEFEFE" opacity="1.000000" stroke="none" 
	d="
M500.753723,235.707245 
	C501.000000,245.687561 501.000000,255.375122 501.000000,265.531342 
	C498.793274,270.538422 500.106567,275.459473 499.563629,280.184967 
	C495.570984,314.934784 484.691528,347.309906 466.975067,377.435089 
	C457.317657,393.856659 445.865173,408.846375 432.766998,422.726685 
	C394.421753,463.361664 347.613220,487.995483 292.818878,497.884003 
	C284.143921,499.449554 275.344360,499.733765 266.296021,500.753296 
	C256.312439,501.000000 246.624878,501.000000 236.468658,501.000000 
	C230.939285,498.884033 225.544525,500.117310 220.319000,499.480255 
	C189.397278,495.710510 160.269119,486.419037 132.842850,471.730865 
	C130.687836,470.576752 128.302063,469.565216 126.820534,466.921692 
	C127.195084,464.646515 128.912048,464.108826 130.375366,463.457520 
	C147.161942,455.986115 159.610077,443.413239 170.700577,429.248596 
	C178.815002,418.885040 186.527649,408.228668 193.102554,396.810791 
	C195.254562,393.073669 197.879807,391.605713 202.128799,392.945068 
	C213.969635,396.677460 226.263199,398.174103 238.544647,398.393829 
	C248.800385,398.577332 259.123199,397.386597 269.198517,394.904724 
	C275.857086,393.264526 276.126801,393.422089 277.273499,400.048431 
	C277.731812,402.696930 278.945465,403.608673 281.364319,402.619781 
	C289.327332,399.364349 298.084320,397.121887 300.392395,386.882599 
	C301.006805,384.156830 303.334412,382.640411 305.902924,381.485840 
	C323.188507,373.715820 339.230743,363.964935 352.768127,350.578094 
	C363.111267,340.350006 371.838928,328.824188 378.653656,315.900482 
	C382.535309,308.539215 386.733551,301.343384 390.126770,293.730133 
	C390.669037,292.513519 391.169891,291.274445 391.592255,290.013306 
	C392.377655,287.668091 393.819763,284.723267 390.876007,283.368042 
	C388.009155,282.048279 386.980194,285.265320 385.966583,287.165131 
	C380.796265,296.856232 376.099518,306.786713 370.337677,316.176483 
	C357.258881,337.490112 340.194092,354.579102 318.100891,366.495697 
	C316.192413,367.525055 314.341248,368.670258 311.685425,368.554138 
	C311.093231,368.311798 310.879852,368.158783 310.486450,367.651337 
	C310.464783,360.907104 314.027161,355.625732 316.275146,349.988770 
	C327.821503,321.035309 337.883331,291.576324 347.061920,261.807068 
	C359.629272,221.046860 370.419769,179.801559 380.481049,138.361435 
	C386.844940,112.150169 392.603302,85.784378 400.581482,59.986996 
	C401.023926,58.556301 401.316772,57.077972 402.271240,55.422409 
	C405.624878,53.333672 407.550049,55.757614 409.453125,57.358494 
	C431.355927,75.783325 450.272919,96.768806 465.104462,121.401733 
	C484.287048,153.260941 495.939270,187.570084 499.880402,224.530457 
	C500.266815,228.154221 499.361298,231.842377 500.753723,235.707245 
z"/>
<path fill="#010101" opacity="1.000000" stroke="none" 
	d="
M235.531342,1.000000 
	C235.651306,3.664910 233.458969,2.603219 232.118652,2.701975 
	C203.828293,4.786435 176.646561,11.438996 150.786194,23.031052 
	C97.466484,46.931904 57.075726,84.758850 29.910000,136.542923 
	C14.186676,166.515152 5.187764,198.437912 2.766242,232.210281 
	C2.662594,233.655823 2.907980,235.241760 1.388337,236.236816 
	C1.000000,159.071716 1.034146,82.143364 0.895059,5.215325 
	C0.888390,1.526458 1.757627,0.903085 5.277092,0.908596 
	C81.872147,1.028554 158.467438,1.000000 235.531342,1.000000 
z"/>
<path fill="#010101" opacity="1.000000" stroke="none" 
	d="
M501.000000,235.531342 
	C498.299744,235.671188 499.402191,233.457077 499.303040,232.126816 
	C497.198853,203.890182 490.444061,176.820068 479.042084,150.917679 
	C462.613007,113.595001 438.348602,82.268677 406.649292,56.668961 
	C405.770660,55.959389 404.698212,55.489750 403.361023,54.969456 
	C398.244141,52.299263 394.519836,48.041122 389.125000,45.627075 
	C385.405609,42.360897 381.539490,39.955116 377.068573,37.847279 
	C374.153748,35.780434 371.209503,34.413330 368.354523,32.289742 
	C361.741455,26.922705 354.103424,24.169506 346.710358,21.087650 
	C322.236542,10.885531 296.771240,4.641152 270.271179,2.797313 
	C268.664551,2.685527 266.924316,2.959726 265.763611,1.388401 
	C342.928284,1.000000 419.856628,1.034144 496.784668,0.895065 
	C500.473450,0.888396 501.096893,1.757539 501.091370,5.277063 
	C500.971405,81.872131 501.000000,158.467422 501.000000,235.531342 
z"/>
<path fill="#010101" opacity="1.000000" stroke="none" 
	d="
M266.468658,501.000000 
	C266.330933,498.295990 268.549805,499.397766 269.882416,499.299591 
	C298.174377,497.214783 325.357941,490.562927 351.218170,478.968292 
	C404.532745,455.064301 444.928436,417.244476 472.089417,365.456909 
	C487.809692,335.483185 496.813141,303.562164 499.234528,269.789734 
	C499.338257,268.343048 499.094452,266.758972 500.611694,265.763123 
	C501.000000,342.928284 500.965881,419.856628 501.104950,496.784668 
	C501.111603,500.473450 500.242462,501.096893 496.722931,501.091400 
	C420.127869,500.971436 343.532562,501.000000 266.468658,501.000000 
z"/>
<path fill="#010101" opacity="1.000000" stroke="none" 
	d="
M126.648392,465.703308 
	C133.019745,471.726410 140.920532,474.447479 148.330566,477.837128 
	C174.968246,490.022247 202.946045,497.233124 232.221558,499.232819 
	C233.664246,499.331329 235.247757,499.089417 236.237549,500.611786 
	C159.071716,501.000000 82.143379,500.965881 5.215353,501.104950 
	C1.526563,501.111603 0.903078,500.242462 0.908591,496.722931 
	C1.028558,420.127869 1.000000,343.532562 1.000000,266.468658 
	C3.698084,266.339203 2.598542,268.556061 2.697229,269.890045 
	C4.790373,298.184265 11.588563,325.305145 23.012529,351.246826 
	C34.022560,376.248535 48.671848,398.904114 67.655518,418.956421 
	C71.331688,420.429657 72.738518,423.834595 75.198593,426.181641 
	C78.388931,429.225372 81.831673,432.013855 84.861626,435.644958 
	C91.600670,443.241058 99.651840,448.821716 107.621391,454.459076 
	C109.364632,455.692200 110.446564,458.316559 113.624268,457.903503 
	C118.374077,460.064026 122.217247,463.058533 126.648392,465.703308 
z"/>
<path fill="#3B3839" opacity="1.000000" stroke="none" 
	d="
M127.231018,465.960205 
	C121.893196,464.818359 118.016159,461.785645 114.106819,458.289948 
	C141.163834,451.103271 157.549225,431.143646 172.523682,409.567719 
	C176.596344,403.699615 180.001678,397.371948 183.965622,391.423340 
	C185.981186,388.398621 185.259064,387.129578 182.190262,385.495331 
	C160.450912,373.918488 141.508636,358.919800 127.392761,338.512848 
	C112.092743,316.393982 102.317497,292.128052 103.324226,264.837341 
	C104.341141,237.270782 114.861237,214.634918 141.209503,202.215454 
	C163.902832,191.518753 186.186462,194.134628 207.851349,205.621658 
	C225.597458,215.030869 239.229797,228.993042 250.986038,244.987549 
	C252.232513,246.683380 253.446533,248.403061 255.180298,250.813293 
	C260.263763,239.868973 264.977356,229.674728 269.729309,219.498428 
	C290.275848,175.498169 309.700562,130.959290 332.789429,88.179474 
	C343.223022,68.847832 354.095123,49.791206 367.847534,32.176472 
	C371.629730,32.312740 374.083374,34.634243 376.909790,36.761398 
	C377.751343,39.601593 376.007599,41.188812 374.727783,42.843544 
	C350.604889,74.033806 333.215729,109.083031 316.620575,144.555862 
	C299.334259,181.506134 283.587097,219.149033 266.733246,256.294769 
	C264.629578,260.931274 264.625885,264.923431 266.877289,269.565063 
	C277.778656,292.040161 285.186493,315.640137 288.738770,340.404572 
	C289.254303,343.998413 289.897156,347.591919 289.716553,349.579926 
	C302.062164,312.223846 314.366333,273.077698 325.569885,233.595673 
	C334.660614,201.559280 343.537292,169.462402 352.510651,137.392853 
	C361.016388,106.994331 373.048767,77.926758 385.603241,49.050640 
	C386.265717,47.526936 386.968323,45.993435 388.890930,45.021408 
	C394.895294,46.579243 398.839813,50.686230 403.051666,54.681358 
	C399.976471,66.240845 396.770020,77.406693 393.951141,88.669548 
	C385.877045,120.929672 378.250610,153.304321 369.918396,185.496841 
	C354.535126,244.932068 336.828461,303.639771 313.354370,360.470642 
	C312.466095,362.621155 311.586395,364.775208 310.682312,367.293823 
	C310.672333,367.855316 310.682709,368.050629 310.985962,368.262695 
	C332.962128,358.605194 350.094971,343.527924 363.652924,324.196808 
	C371.901184,312.436340 378.199615,299.574585 384.897522,286.929718 
	C386.308563,284.265839 387.347595,279.494904 391.724304,281.577240 
	C395.946167,283.585938 393.932495,287.705505 392.605652,290.865875 
	C375.205414,332.310455 348.614349,365.141693 305.946594,382.739410 
	C303.361877,383.805450 302.016052,385.358704 301.152740,387.920654 
	C298.453247,395.932068 287.002930,404.365204 278.802216,404.629700 
	C275.282990,404.743195 275.689484,402.158447 275.935608,400.124939 
	C276.477356,395.648621 275.419312,394.515961 270.608093,395.712646 
	C247.306534,401.508728 224.041367,400.594421 201.039581,393.907043 
	C197.807678,392.967407 196.495209,393.696808 194.797363,396.423950 
	C183.790421,414.103790 172.272598,431.426880 157.277893,446.106964 
	C148.626968,454.576355 138.968079,461.535248 127.231018,465.960205 
z"/>
<path fill="#393637" opacity="1.000000" stroke="none" 
	d="
M85.322266,435.873352 
	C78.351158,431.561340 73.089180,425.781860 68.090981,419.310242 
	C71.120209,407.650116 78.429756,400.650635 90.025139,398.785248 
	C99.742851,397.221924 108.694328,404.040924 110.842224,413.956635 
	C112.751984,422.772949 108.263466,429.818176 98.298882,432.988037 
	C94.220955,434.285278 89.912567,434.858063 85.322266,435.873352 
z"/>
<path fill="#FDFDFD" opacity="1.000000" stroke="none" 
	d="
M389.186951,44.601196 
	C379.171082,65.587692 370.779114,86.953468 363.164246,108.594826 
	C352.062531,140.145828 344.103027,172.647385 335.096069,204.823975 
	C321.421997,253.673691 306.954773,302.273956 290.826416,350.373077 
	C290.515594,351.300049 290.085205,352.186920 289.339569,353.989502 
	C287.947266,345.102692 286.890503,337.048615 285.396912,329.076416 
	C281.389374,307.686127 274.159088,287.353546 264.541565,267.874573 
	C262.928497,264.607513 262.718842,261.840759 264.243958,258.498016 
	C283.086395,217.199249 300.466553,175.242554 319.899536,134.211548 
	C335.942719,100.337730 353.462921,67.295525 376.944153,37.423809 
	C381.725464,38.330555 385.471588,41.196373 389.186951,44.601196 
z"/>
<path fill="#FDFDFD" opacity="1.000000" stroke="none" 
	d="
M174.929596,369.111816 
	C154.016861,355.391449 137.309555,338.383301 127.475891,315.404053 
	C117.100929,291.159943 116.329659,267.010040 130.743958,244.133148 
	C149.902908,213.725922 189.791672,206.599945 219.136154,227.641281 
	C230.972275,236.128326 240.114700,247.011551 247.801758,259.256805 
	C249.079803,261.292694 249.253418,262.971558 248.262543,265.249817 
	C231.921906,302.820465 214.110397,339.645660 193.280502,374.967926 
	C191.764999,377.537842 190.652802,378.766998 187.658539,376.707581 
	C183.694702,373.981323 179.394730,371.743835 174.929596,369.111816 
z"/>
<path fill="#FCFCFC" opacity="1.000000" stroke="none" 
	d="
M244.183380,302.212372 
	C248.251221,293.266144 252.176605,284.668304 256.395233,275.428162 
	C261.830048,285.794708 265.726410,296.008270 268.895935,306.478668 
	C276.089966,330.243652 279.315247,354.585266 279.123474,379.410187 
	C279.102417,382.133118 278.561951,383.561371 275.663269,384.342529 
	C252.718735,390.525635 229.790665,392.113617 206.678757,385.137421 
	C203.166992,384.077423 202.584381,383.051056 204.410736,379.808960 
	C218.624115,354.577545 231.683075,328.747528 244.183380,302.212372 
z"/>
<path fill="#FEFEFE" opacity="1.000000" stroke="none" 
	d="
M311.124451,368.124817 
	C310.725769,368.919586 310.270782,369.240265 310.481720,367.819702 
	C310.661926,367.660034 310.970032,367.970154 311.124451,368.124817 
z"/>
</svg>